<svg width="275" height="271" viewBox="0 0 275 271" fill="none" xmlns="http://www.w3.org/2000/svg">
<path d="M107.729 269.552C107.69 269.552 107.648 269.547 107.609 269.54C107.269 269.477 107.04 269.16 107.082 268.817L108.323 258.832C108.356 258.565 108.549 258.345 108.811 258.279C109.055 258.216 109.344 258.314 109.501 258.534L110.456 259.868C110.57 260.023 110.606 260.222 110.558 260.409L108.362 269.059C108.287 269.353 108.025 269.552 107.729 269.552Z" fill="white"/>
<path d="M207.043 25.9104C206.781 25.9104 206.537 25.7522 206.434 25.4962L206.118 24.6933C206.049 24.5171 206.061 24.3198 206.148 24.1526C206.232 23.9839 206.389 23.8634 206.573 23.8182L215.357 21.7004C215.698 21.6311 216.041 21.8194 216.138 22.1523C216.237 22.4882 216.053 22.8406 215.725 22.9536L207.257 25.8743C207.184 25.8984 207.112 25.9104 207.043 25.9104Z" fill="white"/>
<path d="M160.692 4.53817C160.43 4.53817 160.186 4.38001 160.084 4.12545L158.827 0.948741C158.707 0.641463 158.833 0.292015 159.123 0.133857C159.418 -0.0243018 159.776 0.0585554 159.966 0.328168L162.039 3.22468C162.159 3.39188 162.195 3.60726 162.132 3.80309C162.069 4.00039 161.915 4.15556 161.719 4.22182L160.903 4.50198C160.834 4.52607 160.761 4.53817 160.692 4.53817Z" fill="white"/>
<path d="M16.4836 165.153C16.3661 165.153 16.2486 165.12 16.1432 165.058L1.25836 156.013C0.969155 155.837 0.863711 155.468 1.01434 155.165C1.16195 154.861 1.51443 154.724 1.83676 154.846L17.9808 161.148C18.1495 161.213 18.2821 161.345 18.3483 161.511C18.4176 161.678 18.4116 161.865 18.3363 162.029L17.0771 164.772C16.9987 164.942 16.8541 165.07 16.6764 165.125C16.6131 165.144 16.5469 165.153 16.4836 165.153ZM8.3468 158.791L16.1944 163.56L16.8602 162.114L8.3468 158.791Z" fill="white"/>
<path d="M202.871 240.302C202.792 240.302 202.714 240.288 202.636 240.258L202.091 240.049C201.922 239.984 201.786 239.85 201.72 239.681C201.651 239.513 201.657 239.323 201.735 239.157L201.75 239.125C201.901 238.806 202.286 238.665 202.612 238.812L203.142 239.053C203.464 239.199 203.609 239.574 203.473 239.901C203.368 240.15 203.127 240.302 202.871 240.302Z" fill="white"/>
<path d="M14.8385 139.484H14.8204C14.6155 139.478 14.4258 139.377 14.3053 139.21L1.06527 120.677C0.902608 120.448 0.90561 120.139 1.0713 119.911C1.23396 119.682 1.52619 119.588 1.79731 119.675L12.6634 123.154C12.799 123.197 12.9135 123.282 12.9978 123.397L19.788 132.91C19.9567 133.148 19.9477 133.469 19.7669 133.697L15.3506 139.237C15.2241 139.393 15.0373 139.484 14.8385 139.484ZM3.27645 121.52L14.8656 137.745L18.4354 133.269L12.0579 124.332L3.27645 121.52Z" fill="white"/>
<path d="M107.729 269.552C107.521 269.552 107.322 269.452 107.196 269.278L96.0315 253.641C95.914 253.474 95.8808 253.259 95.9411 253.063C96.0044 252.867 96.155 252.712 96.3508 252.644L103.063 250.321C103.328 250.228 103.638 250.321 103.81 250.559L109.503 258.534C109.597 258.666 109.639 258.832 109.618 258.994L108.377 268.979C108.344 269.246 108.151 269.466 107.889 269.532C107.838 269.546 107.783 269.552 107.729 269.552ZM97.604 253.593L107.286 267.155L108.289 259.085L103.03 251.716L97.604 253.593Z" fill="white"/>
<path d="M261.108 132.01H261.09C260.886 132.004 260.696 131.903 260.575 131.735L257.24 127.062C257.033 126.769 257.099 126.363 257.391 126.152L273.963 114.201C274.225 114.007 274.596 114.045 274.818 114.281C275.044 114.516 275.059 114.883 274.858 115.138L261.621 131.763C261.494 131.919 261.307 132.01 261.108 132.01ZM258.683 126.831L261.136 130.271L270.878 118.039L258.683 126.831Z" fill="white"/>
<path d="M107.73 269.552C107.519 269.552 107.317 269.449 107.19 269.269C107.025 269.026 107.04 268.704 107.23 268.478L111.748 263.092C111.878 262.938 112.071 262.857 112.273 262.858C112.474 262.867 112.661 262.967 112.779 263.131L114.978 266.197C115.098 266.365 115.131 266.58 115.071 266.777C115.008 266.973 114.857 267.128 114.662 267.196L107.944 269.516C107.874 269.54 107.802 269.552 107.73 269.552ZM112.209 264.577L109.748 267.511L113.405 266.247L112.209 264.577Z" fill="white"/>
<path d="M10.3802 178.414C10.2627 178.414 10.1452 178.383 10.0368 178.316C9.75659 178.143 9.64812 177.788 9.78672 177.488L17.1493 161.484C17.2909 161.172 17.6584 161.026 17.9807 161.148L22.0868 162.752C22.2796 162.828 22.4272 162.99 22.4784 163.191C22.5327 163.391 22.4905 163.606 22.3609 163.767L10.8923 178.167C10.7628 178.328 10.573 178.414 10.3802 178.414ZM18.0802 162.59L13.227 173.136L20.7854 163.647L18.0802 162.59Z" fill="white"/>
<path d="M73.0735 256.185C72.8656 256.185 72.6638 256.084 72.5403 255.91C72.3867 255.693 72.3806 255.402 72.5252 255.178L80.7253 242.465C80.8157 242.323 80.9573 242.224 81.1199 242.183L81.7013 242.042C82.0207 241.969 82.346 242.134 82.4635 242.438L86.3225 252.239C86.3918 252.415 86.3798 252.613 86.2924 252.78C86.2081 252.947 86.0514 253.069 85.8676 253.114L73.2271 256.167C73.1759 256.179 73.1247 256.185 73.0735 256.185ZM81.5266 243.631L74.5075 254.513L84.8313 252.019L81.5266 243.631Z" fill="white"/>
<path d="M223.386 219.912C223.241 219.912 223.097 219.864 222.982 219.772C222.826 219.648 222.732 219.458 222.732 219.258V208.532C222.732 208.231 222.94 207.967 223.232 207.896L229.019 206.496C229.164 206.465 229.306 206.476 229.438 206.535L245.067 213.494C245.323 213.607 245.477 213.87 245.453 214.149C245.429 214.427 245.227 214.659 244.956 214.726L223.54 219.894C223.489 219.906 223.437 219.912 223.386 219.912ZM224.04 209.046V218.428L242.781 213.905L229.11 207.818L224.04 209.046Z" fill="white"/>
<path d="M87.2773 257.121C87.0152 257.121 86.7682 256.961 86.6688 256.705L81.2463 242.917C81.177 242.74 81.189 242.543 81.2764 242.376C81.3607 242.209 81.5174 242.087 81.7012 242.042L85.1113 241.218C85.2921 241.177 85.4819 241.21 85.6325 241.314C85.7861 241.418 85.8886 241.581 85.9127 241.764L87.925 256.378C87.9702 256.706 87.7624 257.015 87.443 257.1C87.3858 257.113 87.3316 257.121 87.2773 257.121ZM82.7375 243.137L85.8825 251.12L84.7167 242.658L82.7375 243.137Z" fill="white"/>
<path d="M197.5 250.587C197.454 250.587 197.406 250.582 197.361 250.572C197.06 250.505 196.846 250.24 196.846 249.933V237.217C196.846 236.996 196.957 236.788 197.144 236.667C197.334 236.548 197.572 236.533 197.768 236.622L202.609 238.812C202.771 238.885 202.895 239.017 202.955 239.183C203.015 239.347 203.006 239.529 202.931 239.689L198.093 250.206C197.985 250.442 197.75 250.587 197.5 250.587ZM198.153 238.229V246.947L201.473 239.731L198.153 238.229Z" fill="white"/>
<path d="M170.188 20.759C170.064 20.759 169.944 20.7244 169.835 20.6566C169.67 20.5497 169.558 20.3719 169.537 20.1731L167.567 1.35244C167.537 1.05722 167.708 0.778541 167.986 0.673133C168.26 0.570717 168.576 0.662583 168.751 0.905111L179.921 16.5476C180.039 16.7148 180.072 16.9302 180.012 17.126C179.948 17.3218 179.798 17.4769 179.602 17.5447L170.402 20.7229C170.332 20.747 170.26 20.759 170.188 20.759ZM169.124 3.6811L170.751 19.2196L178.349 16.5957L169.124 3.6811Z" fill="white"/>
<path d="M244.802 214.744C244.582 214.744 244.374 214.632 244.254 214.445L231.613 194.997C231.544 194.891 231.508 194.768 231.508 194.641V191.26C231.508 191.112 231.559 190.969 231.649 190.853L264.597 149.482L244.772 137.434C244.489 137.26 244.38 136.902 244.519 136.601L245.254 135.012C245.302 134.909 245.374 134.822 245.465 134.755L257.391 126.152C257.533 126.049 257.708 126.006 257.879 126.037C258.051 126.066 258.205 126.161 258.307 126.302L274.879 149.512C275.015 149.704 275.039 149.952 274.939 150.164L245.395 214.363C245.296 214.58 245.088 214.724 244.85 214.742C244.832 214.742 244.817 214.744 244.802 214.744ZM232.815 194.447L244.703 212.74L273.593 149.963L257.623 127.596L246.369 135.715L245.95 136.619L265.911 148.75C266.07 148.848 266.182 149.009 266.215 149.194C266.245 149.38 266.2 149.569 266.082 149.716L232.815 191.489V194.447Z" fill="white"/>
<path d="M109.757 37.7676C109.625 37.7676 109.492 37.727 109.384 37.6486C109.233 37.5447 109.134 37.382 109.109 37.2013L107.082 22.2652C107.034 21.9098 107.281 21.5829 107.636 21.5317C108.022 21.482 108.323 21.726 108.374 22.0785L110.652 36.9603C110.706 37.3022 110.483 37.6245 110.146 37.6984L109.896 37.7526C109.85 37.7631 109.802 37.7676 109.757 37.7676Z" fill="white"/>
<path d="M94.4952 39.4502C94.4169 39.4502 94.3355 39.4351 94.2602 39.4065L73.3805 31.348C73.2118 31.2833 73.0792 31.1507 73.01 30.9835C72.9407 30.8163 72.9467 30.6296 73.022 30.4654L77.8481 19.9743C77.9324 19.7921 78.0951 19.658 78.2879 19.6113L159.282 0.0721428C159.529 0.0149195 159.794 0.103762 159.951 0.307113C160.111 0.510464 160.135 0.786092 160.014 1.01354L157.677 5.43139C157.598 5.57748 157.469 5.68897 157.312 5.74317L108.121 22.7337L95.0073 39.2031C94.8808 39.3628 94.691 39.4502 94.4952 39.4502ZM74.5012 30.3795L94.2843 38.0147L107.217 21.7713C107.295 21.6734 107.398 21.601 107.515 21.5604L156.64 4.59241L158.18 1.68232L78.9024 20.8073L74.5012 30.3795Z" fill="white"/>
<path d="M52.5616 51.5725C52.4169 51.5725 52.2724 51.5243 52.1579 51.4324C52.0012 51.3089 51.9078 51.1191 51.9078 50.9188V29.1925C51.9078 29.0118 51.9831 28.8386 52.1157 28.715C52.2483 28.5915 52.417 28.5253 52.6037 28.5403L73.1159 29.8824C73.4654 29.905 73.7335 30.1972 73.7275 30.5451L73.4834 46.04C73.4774 46.3382 73.2726 46.5943 72.9834 46.6651L52.7152 51.5544C52.664 51.5665 52.6128 51.5725 52.5616 51.5725ZM53.2153 29.8899V50.0888L72.1851 45.5128L72.411 31.1461L53.2153 29.8899Z" fill="white"/>
<path d="M60.4327 248.5C60.2248 248.5 60.026 248.401 59.8995 248.226L9.84656 178.14C9.71703 177.958 9.68992 177.721 9.77426 177.514C9.8586 177.307 10.0424 177.157 10.2653 177.117L41.6015 171.493C41.7491 171.458 41.9208 171.496 42.0563 171.577L51.3861 177.252C51.4614 177.298 51.5247 177.358 51.5789 177.431L58.0468 186.485C58.1643 186.649 58.1974 186.858 58.1401 187.051L53.2508 203.373L69.8287 245.489C69.898 245.666 69.8859 245.863 69.7986 246.03C69.7112 246.199 69.5576 246.319 69.3738 246.365L60.5863 248.482C60.5351 248.494 60.4839 248.5 60.4327 248.5ZM11.5125 178.222L60.7068 247.109L68.3375 245.27L51.9524 203.641C51.8982 203.504 51.8922 203.355 51.9344 203.215L56.7966 186.983L50.5908 178.3L41.5864 172.823L11.5125 178.222Z" fill="white"/>
<path d="M223.386 209.186C223.241 209.186 223.097 209.137 222.982 209.046C222.826 208.922 222.732 208.732 222.732 208.532V205.839C222.732 205.658 222.808 205.486 222.94 205.363C223.073 205.238 223.244 205.173 223.428 205.186L226.796 205.402C226.875 205.406 226.95 205.426 227.019 205.458L229.438 206.535C229.694 206.648 229.848 206.911 229.824 207.19C229.8 207.468 229.598 207.7 229.327 207.767L223.54 209.167C223.489 209.18 223.437 209.186 223.386 209.186ZM224.04 206.535V207.702L227.155 206.947L226.594 206.699L224.04 206.535Z" fill="white"/>
<path d="M81.2736 243.473C81.0657 243.473 80.8669 243.373 80.7404 243.197C80.5867 242.98 80.5807 242.689 80.7253 242.465L84.1264 237.196C84.274 236.964 84.5512 236.857 84.8163 236.911C85.0844 236.971 85.2862 237.19 85.3224 237.461L85.9128 241.764C85.958 242.097 85.7441 242.409 85.4188 242.489L81.4272 243.454C81.376 243.466 81.3248 243.473 81.2736 243.473ZM84.268 239.386L82.7105 241.798L84.5361 241.356L84.268 239.386Z" fill="white"/>
<path d="M226.754 206.708C226.739 206.708 226.727 206.708 226.712 206.706L223.344 206.491C223 206.468 222.732 206.184 222.732 205.839V204.555C222.732 204.334 222.844 204.128 223.031 204.007C223.22 203.888 223.452 203.872 223.651 203.959L227.019 205.458C227.308 205.586 227.465 205.903 227.39 206.211C227.317 206.504 227.052 206.708 226.754 206.708Z" fill="white"/>
<path d="M1.59849 156.108C1.37255 156.108 1.15865 155.991 1.03816 155.792C0.896566 155.558 0.917681 155.262 1.08636 155.048L18.7427 132.883C18.8752 132.722 19.0831 132.672 19.2729 132.636C19.4778 132.642 19.6675 132.743 19.788 132.91L29.6389 146.715C29.7384 146.857 29.7806 147.035 29.7504 147.206C29.7203 147.378 29.6239 147.53 29.4793 147.631L23.3338 151.925C23.2585 151.978 23.1741 152.014 23.0837 152.031L1.722 156.096C1.67983 156.104 1.63766 156.108 1.59849 156.108ZM19.2247 134.374L3.20717 154.483L22.7011 150.773L28.1899 146.937L19.2247 134.374Z" fill="white"/>
<path d="M97.6918 40.6868C97.6104 40.6868 97.5321 40.6717 97.4568 40.6431L94.2605 39.4064C94.0647 39.3311 93.9201 39.1684 93.8659 38.9666C93.8116 38.7663 93.8538 38.5524 93.9833 38.3897L107.217 21.7712C107.383 21.5678 107.654 21.476 107.904 21.5482C108.154 21.6175 108.341 21.8299 108.377 22.0905L110.405 37.0265C110.45 37.3579 110.236 37.6697 109.911 37.7495L97.8454 40.6687C97.7942 40.6807 97.743 40.6868 97.6918 40.6868ZM95.5619 38.5072L97.7369 39.3492L109.031 36.6169L107.287 23.7821L95.5619 38.5072Z" fill="white"/>
<path d="M87.2264 43.2068C87.2114 43.2068 87.1993 43.2068 87.1843 43.2053L80.7526 42.7866C80.5477 42.773 80.3639 42.6661 80.2495 42.4958L72.5284 30.8962C72.3717 30.6612 72.3868 30.3509 72.5615 30.128C72.7363 29.9036 73.0345 29.8222 73.3026 29.9231L73.8449 30.1265L97.9269 39.4231C98.195 39.527 98.3637 39.7906 98.3426 40.0768C98.3245 40.3615 98.1227 40.601 97.8455 40.6687L87.3801 43.1887C87.3289 43.2008 87.2777 43.2068 87.2264 43.2068ZM81.1592 41.5032L87.1692 41.8948L95.5048 39.887L74.7516 31.8767L81.1592 41.5032Z" fill="white"/>
<path d="M55.2513 65.174C55.2362 65.174 55.2242 65.174 55.2091 65.1725L51.7417 64.9465C51.6724 64.942 51.6061 64.927 51.5429 64.9013L30.9042 56.6938C30.6391 56.5883 30.4734 56.3247 30.4945 56.0401C30.5126 55.7569 30.7144 55.5189 30.9915 55.4511L72.6757 45.3939C72.8775 45.3487 73.0793 45.3939 73.239 45.5189C73.3957 45.6454 73.4861 45.8382 73.483 46.0401L73.3595 53.7807C73.3535 54.0549 73.1788 54.2974 72.9197 54.3878L60.8245 58.5676L55.7634 64.927C55.6369 65.0837 55.4502 65.174 55.2513 65.174ZM51.9285 63.6496L54.9531 63.8455L59.9207 57.6051C59.999 57.5071 60.1014 57.4348 60.2189 57.3942L72.0611 53.3017L72.1635 46.8624L33.2991 56.2389L51.9285 63.6496Z" fill="white"/>
<path d="M194.86 30.1204C194.598 30.1204 194.354 29.9622 194.252 29.7062L189.621 17.9378C189.552 17.7616 189.564 17.5643 189.651 17.3971C189.739 17.2284 189.892 17.1079 190.076 17.0627L202.717 14.0155C203.039 13.9493 203.361 14.1089 203.479 14.4117L207.651 25.0172C207.717 25.1829 207.711 25.3682 207.636 25.5294C207.561 25.692 207.425 25.8155 207.257 25.8743L195.074 30.0843C195.002 30.1084 194.932 30.1204 194.86 30.1204ZM191.113 18.1577L195.24 28.6443L206.184 24.8621L202.47 15.4193L191.113 18.1577Z" fill="white"/>
<path d="M102.316 44.1979C102.301 44.1979 102.288 44.1979 102.273 44.1964L87.1837 43.2052C86.8614 43.1841 86.6023 42.9311 86.5752 42.6088C86.5481 42.2864 86.759 41.9927 87.0723 41.9174L109.868 36.4211C110.046 36.3819 110.232 36.418 110.377 36.522C110.525 36.6244 110.627 36.784 110.651 36.9618L111.203 40.6009C111.251 40.9127 111.07 41.214 110.772 41.3164L102.529 44.1617C102.46 44.1858 102.388 44.1979 102.316 44.1979ZM91.5549 42.1825L102.228 42.8829L109.829 40.259L109.467 37.8565L91.5549 42.1825Z" fill="white"/>
<path d="M223.386 241.644C223.187 241.644 222.991 241.552 222.868 241.386L206.534 219.987C206.387 219.796 206.356 219.538 206.459 219.318L208.92 213.966C208.995 213.804 209.131 213.679 209.3 213.621L215.12 211.615L221.536 203.557C221.723 203.325 222.043 203.248 222.314 203.365L223.651 203.957C223.886 204.063 224.04 204.296 224.04 204.555V240.99C224.04 241.27 223.862 241.519 223.594 241.609C223.528 241.632 223.455 241.644 223.386 241.644ZM207.811 219.506L222.732 239.056V204.98L222.244 204.765L216.024 212.578C215.945 212.676 215.843 212.748 215.725 212.789L209.989 214.766L207.811 219.506Z" fill="white"/>
<path d="M109.925 260.901C109.717 260.901 109.519 260.802 109.395 260.627L102.743 251.319C102.626 251.151 102.593 250.936 102.653 250.74C102.716 250.544 102.87 250.389 103.063 250.322L112.941 246.91C113.161 246.83 113.417 246.883 113.597 247.047C113.775 247.21 113.847 247.455 113.787 247.689L110.558 260.409C110.495 260.654 110.296 260.843 110.046 260.889C110.007 260.897 109.964 260.901 109.925 260.901ZM104.316 251.272L109.639 258.723L112.224 248.541L104.316 251.272Z" fill="white"/>
<path d="M116.511 270.129C116.303 270.129 116.104 270.029 115.978 269.855L111.718 263.893C111.543 263.65 111.555 263.32 111.748 263.091L116.746 257.148C116.927 256.932 117.222 256.859 117.49 256.961C117.749 257.066 117.915 257.327 117.9 257.609L117.165 269.516C117.147 269.791 116.957 270.028 116.692 270.103C116.631 270.12 116.571 270.129 116.511 270.129ZM113.077 263.543L115.972 267.592L116.472 259.505L113.077 263.543Z" fill="white"/>
<path d="M57.5136 187.518C57.3057 187.518 57.1069 187.417 56.9804 187.244L50.5125 178.19C50.3348 177.938 50.3559 177.593 50.5667 177.366C50.7776 177.136 51.1211 177.092 51.3861 177.252L59.1554 181.971C59.4085 182.126 59.526 182.432 59.4416 182.718L58.1402 187.053C58.0679 187.291 57.8661 187.468 57.619 187.509C57.5859 187.515 57.5497 187.518 57.5136 187.518ZM53.4286 180.023L57.2696 185.4L58.0438 182.826L53.4286 180.023Z" fill="white"/>
<path d="M29.1058 147.749C28.9009 147.749 28.7021 147.654 28.5725 147.474L11.9314 124.156C11.7688 123.927 11.7718 123.618 11.9374 123.391C12.1001 123.163 12.3893 123.068 12.6635 123.154L45.2347 133.618C45.4396 133.685 45.5992 133.846 45.6625 134.052C45.7228 134.257 45.6806 134.48 45.548 134.649L42.4421 138.541C42.403 138.589 42.3548 138.633 42.3036 138.669L29.4793 147.631C29.3648 147.709 29.2353 147.749 29.1058 147.749ZM14.1426 125.001L29.2624 146.188L41.4781 137.651L43.9333 134.573L14.1426 125.001Z" fill="white"/>
<path d="M64.9576 65.8126C64.9425 65.8126 64.9304 65.8126 64.9154 65.8111L55.2091 65.1724C54.9651 65.1559 54.7512 65.0068 54.6548 64.7838C54.5553 64.5624 54.5885 64.3033 54.7391 64.1135L59.9206 57.605C60.0562 57.4393 60.2611 57.3474 60.4689 57.3595C60.6798 57.37 60.8726 57.483 60.984 57.6622L65.5088 64.8094C65.6414 65.0173 65.6444 65.2808 65.5209 65.4932C65.4004 65.6921 65.1865 65.8126 64.9576 65.8126ZM56.5406 63.9509L63.7164 64.4223L60.3725 59.1369L56.5406 63.9509Z" fill="white"/>
<path d="M173.637 37.4469C173.375 37.4469 173.131 37.2887 173.028 37.0326L170.712 31.1537C170.691 31.0995 170.676 31.0408 170.67 30.982L169.537 20.1731C169.507 19.8718 169.688 19.5872 169.974 19.4878L188.455 13.1057C188.693 13.0244 188.971 13.0877 189.148 13.279C189.326 13.4702 189.371 13.7459 189.269 13.9839L180.105 35.0308C180.032 35.1995 179.891 35.329 179.719 35.3878L173.851 37.4107C173.779 37.4348 173.706 37.4469 173.637 37.4469ZM171.962 30.7576L174.017 35.9707L179.02 34.2461L187.476 14.8259L170.893 20.5542L171.962 30.7576Z" fill="white"/>
<path d="M111.083 44.7733C111.068 44.7733 111.056 44.7733 111.04 44.7718L102.274 44.1964C101.964 44.1753 101.711 43.9388 101.669 43.6315C101.626 43.3227 101.81 43.0275 102.102 42.9266L110.345 40.0813C110.525 40.015 110.727 40.0346 110.896 40.14C111.062 40.2394 111.176 40.4081 111.203 40.5994L111.727 44.0201C111.757 44.216 111.697 44.4148 111.565 44.5609C111.441 44.6965 111.266 44.7733 111.083 44.7733ZM105.594 43.1043L110.314 43.4146L110.031 41.5725L105.594 43.1043Z" fill="white"/>
<path d="M72.564 63.3409C72.4857 63.3409 72.4043 63.3258 72.329 63.2972L60.1976 58.6218C59.9416 58.5224 59.7729 58.2754 59.7789 57.9997C59.7849 57.7256 59.9596 57.4831 60.2187 57.3942L72.4917 53.1526C72.6875 53.0803 72.9165 53.1134 73.0882 53.2415C73.2629 53.3665 73.3623 53.5668 73.3593 53.7807L73.2177 62.6977C73.2147 62.9116 73.1063 63.1089 72.9285 63.2294C72.8201 63.3032 72.6935 63.3409 72.564 63.3409ZM62.3365 58.0449L71.9254 61.7412L72.0368 54.6919L62.3365 58.0449Z" fill="white"/>
<path d="M232.161 195.295C231.944 195.295 231.736 195.186 231.613 194.997L230.402 193.133C230.248 192.898 230.263 192.591 230.438 192.37L231.649 190.851C231.824 190.635 232.11 190.553 232.378 190.642C232.64 190.734 232.815 190.982 232.815 191.26V194.641C232.815 194.93 232.625 195.185 232.348 195.268C232.285 195.286 232.224 195.295 232.161 195.295Z" fill="white"/>
<path d="M72.5217 66.3097C72.5067 66.3097 72.4946 66.3097 72.4796 66.3082L64.9151 65.8111C64.7073 65.7976 64.5175 65.6846 64.406 65.5084L59.8812 58.3612C59.7306 58.1232 59.7487 57.8144 59.9264 57.5975C60.1042 57.3791 60.4054 57.3023 60.6675 57.4017L72.7989 62.0771C73.055 62.175 73.2206 62.4235 73.2176 62.6961L73.1754 65.665C73.1724 65.8442 73.0971 66.0144 72.9646 66.1364C72.8441 66.2479 72.6844 66.3097 72.5217 66.3097ZM65.3309 64.5293L71.8771 64.9585L71.9042 63.133L62.0412 59.3327L65.3309 64.5293Z" fill="white"/>
<path d="M179.506 35.4239C179.328 35.4239 179.153 35.3501 179.027 35.2146C178.849 35.0233 178.804 34.7476 178.906 34.5096L188.07 13.4627C188.176 13.2217 188.489 13.0319 188.682 13.0696C188.947 13.0741 189.182 13.2383 189.278 13.4838L195.469 29.2272C195.535 29.3929 195.529 29.5782 195.454 29.7409C195.379 29.902 195.243 30.0255 195.074 30.0843L179.719 35.3878C179.65 35.4119 179.578 35.4239 179.506 35.4239ZM188.639 15.4314L180.699 33.6661L194.002 29.072L188.639 15.4314Z" fill="white"/>
<path d="M95.2454 64.5263C95.0315 64.5263 94.8237 64.4208 94.7002 64.2341L80.2491 42.4958C80.1136 42.2894 80.1045 42.0228 80.2281 41.8074C80.3546 41.5905 80.5865 41.464 80.8366 41.4821L111.124 43.4673C111.432 43.4869 111.682 43.7173 111.727 44.0201L112.652 50.0391C112.682 50.2198 112.631 50.4036 112.519 50.5452L103.789 61.5032C103.711 61.6011 103.608 61.6734 103.491 61.7141L95.4593 64.4901C95.39 64.5142 95.3177 64.5263 95.2454 64.5263ZM82.0687 42.8723L95.5105 63.0893L102.885 60.5407L111.317 49.9548L110.516 44.7371L82.0687 42.8723Z" fill="white"/>
<path d="M236.312 99.967C236.194 99.967 236.077 99.9339 235.971 99.8722L207.696 82.6903C207.524 82.5864 207.413 82.4086 207.389 82.2098C207.365 82.011 207.434 81.8107 207.576 81.6691L221.403 67.8356L191.052 73.8275C190.925 73.8456 190.805 73.838 190.69 73.7959L187.187 72.4418C187.015 72.3755 186.88 72.2414 186.813 72.0712L173.028 37.0327C172.962 36.867 172.968 36.6817 173.043 36.519C173.118 36.3579 173.254 36.2329 173.423 36.1756L215.297 21.7186C215.562 21.6267 215.875 21.7186 216.044 21.9566L266.103 92.0457C266.226 92.2204 266.256 92.4463 266.184 92.6482C266.109 92.8515 265.94 93.0036 265.732 93.0579L246.142 98.1204C245.97 98.161 245.792 98.1369 245.639 98.0466L244.711 97.4817L236.499 99.9399C236.438 99.958 236.375 99.967 236.312 99.967ZM209.088 82.0049L236.402 98.6039L244.614 96.1457C244.789 96.0945 244.979 96.1216 245.142 96.2134L246.081 96.7858L264.485 92.0306L215.263 23.1133L195.074 30.0843L174.495 37.1893L187.925 71.3256L190.986 72.508L223.259 66.1365C223.53 66.0823 223.825 66.2164 223.961 66.4709C224.096 66.724 224.051 67.0373 223.846 67.2406L209.088 82.0049Z" fill="white"/>
<path d="M97.8964 68.5089C97.8874 68.5089 97.8784 68.5089 97.8693 68.5074C97.6615 68.4998 97.4687 68.3914 97.3512 68.2166L94.7002 64.2341C94.5887 64.0669 94.5616 63.856 94.6248 63.6632C94.6911 63.4719 94.8417 63.3213 95.0315 63.255L103.063 60.479C103.328 60.3886 103.641 60.482 103.81 60.7185C103.979 60.9565 103.97 61.2758 103.789 61.5033L98.4086 68.2618C98.282 68.4185 98.0953 68.5089 97.8964 68.5089ZM96.2576 64.2145L97.9446 66.7465L101.364 62.4492L96.2576 64.2145Z" fill="white"/>
<path d="M10.3799 178.414C10.154 178.414 9.93709 178.295 9.81959 178.095C9.678 177.862 9.69911 177.566 9.86779 177.354L21.3364 162.954C21.5142 162.728 21.8154 162.648 22.0865 162.752L37.2937 168.693L42.0565 171.577C42.2885 171.719 42.4089 171.989 42.3577 172.257C42.3095 172.523 42.0987 172.731 41.8305 172.779L10.4944 178.404C10.4582 178.411 10.4191 178.414 10.3799 178.414ZM22.0594 164.144L11.9705 176.812L39.9025 171.797L36.7153 169.86L22.0594 164.144Z" fill="white"/>
<path d="M41.9298 138.786C41.7551 138.786 41.5804 138.715 41.4538 138.58C41.2309 138.343 41.2158 137.979 41.4177 137.724L44.5236 133.832C44.6923 133.62 44.9694 133.537 45.2345 133.617L46.9336 134.156C47.1686 134.231 47.3433 134.435 47.3794 134.682C47.4186 134.927 47.3132 135.173 47.1083 135.316L42.3034 138.669C42.1919 138.747 42.0593 138.786 41.9298 138.786ZM45.2677 134.999L45.2526 135.018L45.2737 135.001L45.2677 134.999Z" fill="white"/>
<path d="M188.17 74.3788C187.904 74.3788 187.66 74.2176 187.561 73.9645L186.814 72.0712C186.721 71.8302 186.775 71.556 186.958 71.3708C187.142 71.1885 187.416 71.1298 187.657 71.2216L191.161 72.5757C191.432 72.6812 191.604 72.9538 191.577 73.243C191.553 73.5337 191.336 73.7717 191.052 73.8274L188.296 74.3667C188.254 74.3742 188.212 74.3788 188.17 74.3788Z" fill="white"/>
<path d="M116.52 82.3649C116.418 82.3649 116.315 82.3408 116.219 82.2926L101.894 74.8984C101.798 74.8472 101.714 74.7719 101.65 74.6785L97.3515 68.2166C97.1948 67.9801 97.2099 67.6698 97.3846 67.4484L111.495 49.7319C111.658 49.5285 111.929 49.4457 112.176 49.5075C112.426 49.5737 112.613 49.7831 112.652 50.0407L117.4 81.1689C117.421 81.3075 117.4 81.4491 117.333 81.5726L117.098 82.017C116.981 82.2384 116.755 82.3649 116.52 82.3649ZM102.644 73.8139L116.008 80.7125L111.586 51.7156L98.7041 67.8898L102.644 73.8139Z" fill="white"/>
<path d="M116.511 270.129C116.36 270.129 116.21 270.076 116.092 269.975C115.932 269.843 115.845 269.642 115.857 269.434L116.592 257.527C116.601 257.389 116.655 257.255 116.746 257.148L130.284 241.017C130.359 240.927 130.459 240.859 130.57 240.82L173.691 225.926C173.851 225.872 174.023 225.88 174.173 225.949L197.767 236.622C198.002 236.728 198.153 236.961 198.153 237.217V249.933C198.153 250.234 197.945 250.498 197.653 250.569L116.664 270.111C116.613 270.123 116.562 270.129 116.511 270.129ZM117.884 257.823L117.219 268.632L196.845 249.418V237.639L173.872 227.246L131.17 241.996L117.884 257.823Z" fill="white"/>
<path d="M201.994 109.509C201.732 109.509 201.485 109.349 201.385 109.095L195.544 94.2568C195.451 94.0143 195.508 93.7386 195.692 93.5549L207.576 81.669C207.787 81.4596 208.124 81.4204 208.377 81.5726L236.653 98.7544C236.873 98.8885 236.993 99.14 236.96 99.3961C236.927 99.6522 236.746 99.8646 236.499 99.9399L220.078 104.858L202.157 109.488C202.102 109.502 202.048 109.509 201.994 109.509ZM196.918 94.177L202.392 108.078L219.729 103.599L234.719 99.1085L208.136 82.9569L196.918 94.177Z" fill="white"/>
<path d="M209.513 214.893C209.332 214.893 209.154 214.818 209.028 214.677C208.853 214.485 208.811 214.204 208.919 213.966L211.266 208.86C211.35 208.675 211.516 208.541 211.715 208.496C211.914 208.455 212.121 208.502 212.278 208.63L215.929 211.668C216.11 211.82 216.194 212.057 216.152 212.288C216.11 212.52 215.947 212.712 215.724 212.789L209.727 214.857C209.657 214.881 209.585 214.893 209.513 214.893ZM212.097 210.181L210.745 213.123L214.2 211.931L212.097 210.181Z" fill="white"/>
<path d="M87.2775 257.121C87.1149 257.121 86.9582 257.06 86.8347 256.948C86.6569 256.785 86.5846 256.539 86.6449 256.306L96.2638 218.436C96.2819 218.368 96.309 218.301 96.3482 218.243L105.262 204.426C105.347 204.295 105.473 204.198 105.624 204.153L117.692 200.562C117.842 200.517 118.005 200.528 118.147 200.594L124.461 203.451C124.75 203.581 124.904 203.9 124.825 204.207L113.788 247.689C113.733 247.901 113.577 248.073 113.369 248.145L87.4914 257.085C87.4221 257.109 87.3498 257.121 87.2775 257.121ZM97.505 218.862L88.2084 255.455L112.61 247.024L123.425 204.415L117.83 201.885L106.229 205.337L97.505 218.862Z" fill="white"/>
<path d="M130.784 242.091C130.574 242.091 130.372 241.989 130.245 241.808C130.08 241.566 130.095 241.242 130.284 241.017L151.221 216.089C151.408 215.866 151.727 215.791 151.99 215.914L174.174 225.949C174.418 226.059 174.571 226.306 174.559 226.574C174.547 226.842 174.373 227.074 174.119 227.161L130.998 242.055C130.929 242.079 130.857 242.091 130.784 242.091ZM151.902 217.309L132.806 240.049L172.14 226.462L151.902 217.309Z" fill="white"/>
<path d="M105.81 205.434C105.609 205.434 105.413 205.34 105.286 205.171C105.124 204.953 105.111 204.656 105.262 204.426L108.657 199.157C108.696 199.092 108.751 199.036 108.811 198.99L110.004 198.086C110.139 197.984 110.308 197.934 110.483 197.959L112.959 198.28C113.022 198.288 113.086 198.306 113.143 198.333L118.147 200.594C118.397 200.705 118.55 200.961 118.529 201.233C118.511 201.505 118.327 201.737 118.065 201.815L105.997 205.406C105.934 205.424 105.874 205.434 105.81 205.434ZM109.693 199.961L107.317 203.65L116.011 201.062L112.694 199.564L110.579 199.289L109.693 199.961Z" fill="white"/>
<path d="M242.753 98.9774C242.506 98.9774 242.277 98.8373 242.166 98.6083C242.03 98.3281 242.112 97.9907 242.359 97.8025L244.407 96.251C244.621 96.0884 244.91 96.0733 245.142 96.2134L246.32 96.9288C246.543 97.0659 246.663 97.3235 246.627 97.5825C246.588 97.8431 246.398 98.054 246.142 98.1203L242.916 98.9563C242.862 98.9698 242.807 98.9774 242.753 98.9774Z" fill="white"/>
<path d="M245.847 135.939C245.699 135.939 245.552 135.89 245.431 135.79C245.202 135.602 245.13 135.283 245.253 135.013L258.876 105.411C258.954 105.24 259.099 105.112 259.28 105.058C259.451 105.004 259.65 105.031 259.81 105.124L274.686 114.172C274.872 114.287 274.99 114.487 274.999 114.706C275.008 114.924 274.905 115.133 274.728 115.261L246.229 135.816C246.115 135.899 245.979 135.939 245.847 135.939ZM259.756 106.623L247.48 133.302L273.164 114.778L259.756 106.623Z" fill="white"/>
<path d="M87.2776 257.121C87.2656 257.121 87.2535 257.121 87.2415 257.119C86.9282 257.103 86.6721 256.866 86.6299 256.556L84.0271 237.639C84.006 237.484 84.0422 237.327 84.1265 237.196L96.3483 218.243C96.523 217.975 96.8664 217.877 97.1587 217.997C97.4509 218.125 97.6075 218.448 97.5292 218.758L87.9103 256.628C87.838 256.919 87.5759 257.121 87.2776 257.121ZM85.3556 237.701L87.4674 253.061L95.2789 222.311L85.3556 237.701Z" fill="white"/>
<path d="M78.5016 66.7013C78.4866 66.7013 78.4745 66.7013 78.4595 66.6998L72.4796 66.3082C72.1332 66.2856 71.862 65.9949 71.8681 65.647L72.4194 30.5241C72.4254 30.1852 72.6905 29.905 73.0279 29.8824C73.3593 29.8342 73.6666 30.0978 73.7178 30.4352L79.1463 65.9482C79.1764 66.144 79.1162 66.3429 78.9836 66.489C78.8601 66.6245 78.6854 66.7013 78.5016 66.7013ZM73.1845 65.0445L77.7334 65.3427L73.6033 38.3325L73.4828 46.04L73.1845 65.0445Z" fill="white"/>
<path d="M102.195 74.9707C102.093 74.9707 101.991 74.9466 101.897 74.8984L87.0998 67.2677L78.4599 66.6998C78.1526 66.6803 77.9026 66.4498 77.8574 66.147L72.4288 30.634C72.3807 30.3298 72.5524 30.036 72.8385 29.9246C73.1217 29.8191 73.4441 29.9186 73.6188 30.1731L102.741 73.9555C102.903 74.2025 102.882 74.5309 102.684 74.7523C102.554 74.8954 102.376 74.9707 102.195 74.9707ZM79.0684 65.4301L87.3197 65.9723C87.4101 65.9783 87.4974 66.0025 87.5758 66.0431L100.255 72.5818L74.1671 33.3543L79.0684 65.4301Z" fill="white"/>
<path d="M109.206 200.165C109.046 200.165 108.886 200.106 108.763 199.992C108.531 199.778 108.486 199.427 108.654 199.16L109.281 198.176C109.417 197.96 109.67 197.856 109.923 197.88L110.489 197.96C110.751 197.997 110.965 198.187 111.031 198.443C111.098 198.699 111.004 198.969 110.793 199.128L109.6 200.032C109.483 200.121 109.344 200.165 109.206 200.165Z" fill="white"/>
<path d="M219.891 104.885C219.605 104.885 219.343 104.695 219.261 104.407C219.165 104.064 219.364 103.707 219.704 103.605L244.615 96.1456C244.907 96.0582 245.241 96.1938 245.383 96.477C245.528 96.7586 245.449 97.1021 245.196 97.2934L243.148 98.8448C243.078 98.8975 243 98.9352 242.916 98.9563L220.054 104.864C220 104.877 219.945 104.885 219.891 104.885Z" fill="white"/>
<path d="M58.8154 183.183C58.6979 183.183 58.5804 183.152 58.475 183.088L36.7156 169.86C36.4264 169.684 36.321 169.315 36.4716 169.012C36.6162 168.708 36.9717 168.566 37.294 168.693L60.3187 177.688C60.635 177.812 60.8037 178.158 60.7073 178.484L59.442 182.716C59.3848 182.91 59.2402 183.067 59.0504 183.139C58.9751 183.168 58.8937 183.183 58.8154 183.183ZM43.798 172.636L58.4328 181.532L59.2824 178.687L43.798 172.636Z" fill="white"/>
<path d="M112.875 199.582C112.848 199.582 112.821 199.58 112.791 199.576L109.742 199.175C109.519 199.143 109.329 199.002 109.239 198.799C109.145 198.595 109.164 198.359 109.284 198.172L109.694 197.539C109.862 197.279 110.194 197.178 110.48 197.286L113.113 198.32C113.42 198.44 113.589 198.771 113.508 199.091C113.432 199.383 113.17 199.582 112.875 199.582Z" fill="white"/>
<path d="M223.386 241.644C223.371 241.644 223.358 241.644 223.343 241.642L202.828 240.3C202.75 240.296 202.672 240.276 202.599 240.243L151.453 217.104C151.266 217.02 151.131 216.854 151.082 216.654C151.037 216.455 151.088 216.245 151.221 216.089L154.375 212.328C154.547 212.121 154.833 212.041 155.08 212.127L174.459 218.505C174.481 218.511 174.502 218.52 174.52 218.529L223.651 240.394C223.94 240.522 224.097 240.84 224.021 241.147C223.949 241.44 223.684 241.644 223.386 241.644ZM203.033 239.003L219.777 240.098L174.02 219.735L155.092 213.507L152.775 216.268L203.033 239.003Z" fill="white"/>
<path d="M124.193 204.7C124.102 204.7 124.009 204.68 123.924 204.641L112.606 199.523C112.29 199.38 112.14 199.015 112.266 198.692C112.393 198.369 112.736 198.195 113.079 198.307L124.726 202.136C125.051 202.243 125.238 202.585 125.154 202.918L124.825 204.207C124.777 204.394 124.651 204.551 124.476 204.635C124.385 204.679 124.289 204.7 124.193 204.7Z" fill="white"/>
<path d="M22.9602 152.043C22.7012 152.043 22.4601 151.889 22.3577 151.644C22.2372 151.359 22.3336 151.031 22.5867 150.853L46.3614 134.243C46.5271 134.127 46.741 134.091 46.9338 134.157L70.582 141.749C70.8682 141.841 71.055 142.114 71.0369 142.412C71.0158 142.71 70.7989 142.957 70.5067 143.013L23.0837 152.031C23.0416 152.038 22.9994 152.043 22.9602 152.043ZM46.8434 135.501L25.8372 150.177L67.7382 142.208L46.8434 135.501Z" fill="white"/>
<path d="M194.152 89.5783C194.092 89.5783 194.035 89.5708 193.975 89.5542C193.779 89.4984 193.619 89.3539 193.544 89.1641L187.561 73.9644C187.492 73.7837 187.504 73.5803 187.597 73.4101C187.691 73.2414 187.853 73.1209 188.043 73.0833L223.259 66.1364C223.555 66.0792 223.856 66.2328 223.982 66.51C224.106 66.7886 224.024 67.1155 223.78 67.2992L194.547 89.4457C194.433 89.5331 194.294 89.5783 194.152 89.5783ZM189.064 74.216L194.445 87.8837L220.732 67.968L189.064 74.216Z" fill="white"/>
<path d="M196.153 94.671C196.108 94.671 196.062 94.6665 196.02 94.6575C195.803 94.6123 195.626 94.4617 195.544 94.2568L193.544 89.1642C193.439 88.8915 193.526 88.5813 193.758 88.4035L222.991 66.257C223.265 66.0492 223.651 66.0914 223.88 66.3489C224.103 66.608 224.091 66.9966 223.847 67.2406L208.498 82.5939L196.614 94.4798C196.49 94.6033 196.325 94.671 196.153 94.671ZM194.942 89.1461L196.397 92.85L216.201 73.0427L194.942 89.1461Z" fill="white"/>
<path d="M223.386 241.644C223.295 241.644 223.205 241.626 223.121 241.587L173.989 219.722C173.67 219.58 173.52 219.214 173.646 218.89C173.77 218.567 174.119 218.396 174.459 218.505L202.572 227.758L206.458 219.318C206.555 219.109 206.751 218.966 206.979 218.942C207.211 218.916 207.431 219.012 207.57 219.195L223.904 240.594C224.088 240.831 224.084 241.16 223.898 241.395C223.771 241.557 223.581 241.644 223.386 241.644ZM186.362 223.798L221.313 239.353L207.19 220.85L203.515 228.833C203.377 229.137 203.042 229.287 202.717 229.181L186.362 223.798Z" fill="white"/>
<path d="M130.895 178.309H130.874C130.567 178.298 130.308 178.075 130.254 177.773L128.582 168.586C128.552 168.422 128.585 168.253 128.675 168.115L129.368 167.042C129.513 166.815 129.787 166.693 130.052 166.757C130.32 166.813 130.522 167.029 130.561 167.297L131.908 176.101C131.923 176.188 131.917 176.275 131.896 176.36L131.528 177.815C131.456 178.106 131.194 178.309 130.895 178.309Z" fill="white"/>
<path d="M230.95 193.432C230.941 193.432 230.929 193.432 230.917 193.43C230.709 193.421 230.517 193.31 230.402 193.133L223.633 182.716C223.512 182.529 223.494 182.291 223.588 182.088L244.519 136.602C244.597 136.432 244.742 136.304 244.922 136.25C245.097 136.196 245.29 136.223 245.453 136.316L265.911 148.75C266.07 148.848 266.182 149.009 266.215 149.194C266.245 149.38 266.2 149.57 266.082 149.716L231.462 193.186C231.336 193.341 231.149 193.432 230.95 193.432ZM224.925 182.307L231.005 191.662L264.597 149.482L245.398 137.815L224.925 182.307Z" fill="white"/>
<path d="M215.511 212.825C215.36 212.825 215.21 212.772 215.092 212.674L211.441 209.636C211.215 209.446 211.143 209.128 211.266 208.859L214.981 200.805C215.131 200.478 215.52 200.336 215.839 200.482L222.313 203.367C222.5 203.448 222.636 203.612 222.684 203.808C222.732 204.004 222.687 204.212 222.56 204.37L216.023 212.578C215.912 212.716 215.752 212.804 215.577 212.822C215.556 212.823 215.532 212.825 215.511 212.825ZM212.664 208.951L215.415 211.242L221.012 204.216L215.897 201.939L212.664 208.951Z" fill="white"/>
<path d="M60.0805 178.951C59.9991 178.951 59.9178 178.935 59.8425 178.905L1.36061 156.063C1.03223 155.935 0.863553 155.569 0.984046 155.236C1.10155 154.902 1.46004 154.725 1.79742 154.832L61.397 173.96C61.7374 174.069 61.9272 174.43 61.8247 174.771L60.7071 178.485C60.6529 178.66 60.5293 178.804 60.3667 178.884C60.2763 178.928 60.1799 178.951 60.0805 178.951ZM22.0867 162.752L59.6587 177.431L60.3878 175.009L21.5716 162.55L22.0867 162.752Z" fill="white"/>
<path d="M202.922 229.214C202.855 229.214 202.786 229.204 202.717 229.181L154.67 213.369C154.465 213.301 154.306 213.135 154.245 212.927C154.188 212.718 154.236 212.493 154.375 212.328L157.785 208.262C157.972 208.039 158.291 207.966 158.55 208.086L203.187 227.964C203.506 228.106 203.657 228.472 203.53 228.796C203.431 229.055 203.184 229.214 202.922 229.214ZM155.996 212.429L190.844 223.897L158.469 209.479L155.996 212.429Z" fill="white"/>
<path d="M124.521 203.411C124.452 203.411 124.383 203.4 124.317 203.378L112.67 199.549L110.004 198.503C109.82 198.431 109.679 198.282 109.622 198.095C109.561 197.908 109.585 197.705 109.694 197.541L113.746 191.27C113.908 191.022 114.213 190.916 114.493 191.002L126.561 194.876C126.889 194.982 127.079 195.325 126.995 195.66L125.154 202.918C125.109 203.093 124.994 203.242 124.835 203.329C124.738 203.384 124.63 203.411 124.521 203.411ZM111.224 197.578L113.113 198.32L124.06 201.918L125.579 195.932L114.571 192.4L111.224 197.578Z" fill="white"/>
<path d="M224.181 183.014C223.961 183.014 223.753 182.903 223.632 182.716L194.149 137.342C194.043 137.178 194.016 136.974 194.074 136.787L202.228 111.253L201.385 109.093C201.316 108.919 201.328 108.724 201.412 108.557C201.496 108.391 201.65 108.269 201.831 108.223L265.407 91.7925C265.648 91.7278 265.91 91.8121 266.07 92.0064C266.232 92.1992 266.268 92.4689 266.163 92.6978L224.774 182.633C224.675 182.85 224.467 182.995 224.229 183.013C224.211 183.013 224.196 183.014 224.181 183.014ZM195.414 136.89L224.081 181.011L264.401 93.4027L242.915 98.9563L202.87 109.304L203.53 110.993C203.584 111.133 203.59 111.286 203.545 111.43L195.414 136.89Z" fill="white"/>
<path d="M202.922 229.214C202.831 229.214 202.741 229.196 202.657 229.157L158.02 209.279C157.833 209.196 157.695 209.029 157.65 208.829C157.602 208.63 157.653 208.419 157.785 208.262L178.02 184.167C178.204 183.941 178.523 183.872 178.786 183.991L215.839 200.483C215.999 200.553 216.126 200.686 216.186 200.849C216.246 201.013 216.24 201.193 216.168 201.353L203.515 228.833C203.407 229.073 203.169 229.214 202.922 229.214ZM159.343 208.439L202.599 227.701L214.704 201.407L178.704 185.384L159.343 208.439Z" fill="white"/>
<path d="M171.32 31.5679C171.058 31.5679 170.811 31.4082 170.711 31.1537L160.083 4.12389C160.017 3.9582 160.023 3.77142 160.098 3.61027C160.174 3.44911 160.312 3.32409 160.481 3.26683L168.003 0.667046C168.19 0.597761 168.398 0.624876 168.567 0.733307C168.735 0.840257 168.847 1.018 168.868 1.21682L171.971 30.8464C172.004 31.1717 171.793 31.4715 171.474 31.5483C171.422 31.5618 171.371 31.5679 171.32 31.5679ZM161.55 4.28056L170.169 26.2011L167.654 2.17182L161.55 4.28056Z" fill="white"/>
<path d="M116.755 81.9206C116.719 81.9206 116.682 81.9175 116.646 81.9115C116.366 81.8633 116.152 81.6434 116.11 81.3647L109.913 40.7983L107.085 22.2773C107.036 21.964 107.217 21.6628 107.515 21.5603L156.884 4.50803C157.131 4.42369 157.421 4.49449 157.595 4.70083C157.77 4.90418 157.8 5.19489 157.677 5.43137L117.333 81.5726C117.219 81.7895 116.993 81.9206 116.755 81.9206ZM111.203 40.6009L117.104 79.2138L155.746 6.28392L108.458 22.6178L111.203 40.6009Z" fill="white"/>
<path d="M131.263 176.854C131.254 176.854 131.242 176.854 131.233 176.852C130.919 176.837 130.663 176.607 130.618 176.3L129.271 167.495C129.247 167.337 129.281 167.176 129.368 167.042L131.594 163.593C131.769 163.317 132.112 163.213 132.411 163.35L134.411 164.245C134.7 164.375 134.854 164.694 134.775 165.003L131.895 176.361C131.823 176.652 131.561 176.854 131.263 176.854ZM130.6 167.542L131.422 172.915L133.375 165.214L132.386 164.772L130.6 167.542Z" fill="white"/>
<path d="M61.1981 175.236C61.1319 175.236 61.0625 175.226 60.9993 175.205L1.39976 156.077C1.11358 155.985 0.926793 155.712 0.94487 155.414C0.96597 155.116 1.18285 154.869 1.47507 154.813L70.2598 141.73C70.3743 141.713 70.4797 141.717 70.5851 141.751L71.0099 141.889C71.3473 141.999 71.5371 142.358 71.4347 142.698L61.8247 174.771C61.7735 174.938 61.659 175.08 61.5024 175.161C61.409 175.211 61.3036 175.236 61.1981 175.236ZM4.24357 155.617L60.7643 173.757L69.9435 143.12L4.24357 155.617Z" fill="white"/>
<path d="M126.362 196.152C126.295 196.152 126.226 196.141 126.163 196.12L114.095 192.246C113.899 192.185 113.745 192.035 113.679 191.844C113.61 191.653 113.634 191.44 113.745 191.27L128.675 168.115C128.82 167.889 129.091 167.779 129.35 167.827C129.615 167.88 129.817 168.087 129.865 168.351L131.537 177.538C131.555 177.631 131.552 177.726 131.528 177.816L126.994 195.659C126.952 195.834 126.835 195.983 126.678 196.071C126.582 196.125 126.47 196.152 126.362 196.152ZM115.306 191.263L125.901 194.664L130.227 177.633L128.877 170.213L115.306 191.263Z" fill="white"/>
<path d="M89.1963 79.8269C89.115 79.8269 89.0337 79.8118 88.9553 79.7802L51.543 64.9014C51.2447 64.7824 51.076 64.4646 51.1453 64.1513C51.2176 63.8365 51.5128 63.6 51.8261 63.6421L87.3196 65.9723C87.6268 65.9919 87.8769 66.2223 87.9221 66.5251L89.841 79.0737C89.8772 79.3057 89.7868 79.5392 89.603 79.6853C89.4855 79.7786 89.341 79.8269 89.1963 79.8269ZM55.8689 65.2162L88.3769 78.1444L86.711 67.2421L55.8689 65.2162Z" fill="white"/>
<path d="M73.0736 256.185C72.8055 256.185 72.5645 256.021 72.4651 255.771L51.9529 203.641C51.8986 203.504 51.8926 203.355 51.9348 203.215L70.1816 142.321C70.2328 142.154 70.3473 142.013 70.5039 141.931C70.6545 141.85 70.8443 141.832 71.007 141.888L99.6379 151.077C99.9663 151.183 100.156 151.526 100.072 151.861L73.7062 255.693C73.6369 255.967 73.3989 256.166 73.1158 256.184C73.1007 256.185 73.0856 256.185 73.0736 256.185ZM53.2512 203.373L72.941 253.405L98.6558 152.133L71.242 143.335L53.2512 203.373Z" fill="white"/>
<path d="M244.802 214.744C244.711 214.744 244.621 214.726 244.537 214.687L178.255 185.183C178.069 185.101 177.93 184.933 177.885 184.735C177.837 184.534 177.888 184.323 178.02 184.167L179.509 182.394L194.074 136.787C194.152 136.546 194.36 136.372 194.61 136.339C194.857 136.295 195.107 136.417 195.246 136.631L245.35 213.735C245.507 213.977 245.486 214.295 245.299 214.515C245.172 214.664 244.989 214.744 244.802 214.744ZM179.578 184.343L243.052 212.594L230.402 193.133L194.9 138.499L180.717 182.914C180.689 182.995 180.647 183.07 180.593 183.135L179.578 184.343Z" fill="white"/>
<path d="M112.874 89.247C112.793 89.247 112.712 89.2319 112.633 89.2003L88.9549 79.7801C88.738 79.6943 88.5844 79.5015 88.5512 79.2725L86.6323 66.7239C86.5931 66.4799 86.6955 66.2374 86.8944 66.0943C87.0962 65.9512 87.3583 65.9301 87.5752 66.0431L116.821 81.1297C116.974 81.2111 117.092 81.3497 117.143 81.5153C117.194 81.6825 117.179 81.8633 117.098 82.0169L113.453 88.899C113.335 89.1189 113.109 89.247 112.874 89.247ZM89.7864 78.7047L112.57 87.7693L115.634 81.9883L88.1174 67.7934L89.7864 78.7047Z" fill="white"/>
<path d="M134.143 165.495C134.053 165.495 133.962 165.476 133.875 165.438L131.874 164.543C131.703 164.465 131.57 164.316 131.516 164.134C131.462 163.951 131.489 163.756 131.591 163.594L132.519 162.144C132.682 161.895 132.992 161.787 133.272 161.874L134.815 162.371C135.143 162.477 135.33 162.82 135.245 163.155L134.776 165.003C134.727 165.19 134.601 165.346 134.426 165.431C134.339 165.473 134.239 165.495 134.143 165.495ZM133.101 163.661L133.7 163.927L133.83 163.427L133.351 163.274L133.101 163.661Z" fill="white"/>
<path d="M73.0735 256.185C72.9861 256.185 72.8957 256.167 72.8114 256.131C72.5192 256.003 72.3625 255.681 72.4408 255.371L98.8063 151.538C98.8485 151.364 98.966 151.214 99.1227 151.127C99.2793 151.04 99.4721 151.02 99.6378 151.077L133.269 161.874C133.462 161.936 133.616 162.084 133.685 162.275C133.755 162.466 133.73 162.677 133.622 162.849L129.772 168.823L85.2229 237.904L73.6217 255.886C73.4982 256.077 73.2904 256.185 73.0735 256.185ZM99.8999 152.534L74.6912 251.819L132.061 162.859L99.8999 152.534Z" fill="white"/>
<path d="M134.613 163.647C134.544 163.647 134.474 163.636 134.408 163.614C134.203 163.546 134.046 163.383 133.986 163.177L112.248 88.777C112.2 88.6129 112.218 88.4381 112.296 88.2875L116.176 80.9611L158.857 0.401965C158.978 0.174522 159.207 0.00282166 159.472 0.0555411C159.725 0.0690834 159.951 0.230266 160.044 0.466748L203.53 110.993C203.635 111.265 203.548 111.576 203.316 111.752L135.007 163.514C134.893 163.602 134.754 163.647 134.613 163.647ZM113.576 88.664L134.974 161.9L202.132 111.008L186.814 72.0711L159.349 2.26818L157.677 5.43132L113.576 88.664Z" fill="white"/>
<path d="M134.613 163.647C134.547 163.647 134.477 163.636 134.411 163.615L44.8372 134.864L1.39977 120.919C1.22202 120.862 1.0744 120.732 0.999104 120.561C0.923804 120.389 0.926806 120.193 1.00513 120.024L30.5518 55.8141C30.6965 55.4948 31.07 55.3517 31.3863 55.4797L113.116 87.9862C113.303 88.0601 113.444 88.2167 113.501 88.4095L135.24 162.81C135.309 163.043 135.243 163.293 135.068 163.462C134.944 163.582 134.782 163.647 134.613 163.647ZM45.2348 133.617L46.9339 134.156L133.64 161.993L112.336 89.0828L31.4797 56.9227L2.49934 119.899L45.2348 133.617Z" fill="white"/>
<path d="M107.729 269.552C107.627 269.552 107.527 269.528 107.431 269.48C107.16 269.341 107.021 269.032 107.096 268.737L133.98 162.832C134.016 162.689 134.1 162.563 134.218 162.472L202.527 110.71C202.756 110.536 203.069 110.532 203.298 110.698C203.533 110.862 203.629 111.158 203.545 111.43L180.716 182.914C180.689 182.995 180.647 183.07 180.593 183.135L117.746 257.988L108.229 269.318C108.103 269.471 107.916 269.552 107.729 269.552ZM135.191 163.376L109.067 266.288L179.508 182.392L201.671 112.998L135.191 163.376Z" fill="white"/>
</svg>
