<svg width="644" height="621" viewBox="0 0 644 621" fill="none" xmlns="http://www.w3.org/2000/svg">
<path d="M-197.028 747L-196.511 745.722C-176.794 697.055 -172.657 644.695 -168.659 594.059C-164.742 544.447 -160.687 493.144 -141.726 446.576C-132.255 423.309 -113.721 403.854 -95.7938 385.039C-70.6327 358.633 -46.8694 333.689 -45.8305 299.061C-44.7822 264.113 -68.0517 233.347 -90.551 203.591C-106.333 182.729 -122.65 161.153 -130.345 138.371C-148.899 83.4638 -151.259 14.443 -153.342 -46.4513C-154.002 -65.708 -154.625 -83.8986 -155.693 -101.343L-155.755 -102.286L-154.74 -102.306C-130.172 -102.841 -102.794 -105.495 -73.8075 -108.305C-11.2896 -114.368 53.3445 -120.635 104.352 -107.651C132.233 -100.553 156.638 -83.747 180.238 -67.4942C209.987 -47.0067 240.755 -25.8209 278.245 -24.6681C320.849 -23.4016 359.024 -49.0295 395.921 -73.8481C424.76 -93.2449 454.58 -113.304 486.344 -120.322C564.399 -137.568 680.768 -102.399 714.582 -91.2134L715.415 -90.9371L715.204 -90.1388C708.472 -64.2629 693.389 -38.1331 677.426 -10.4737C651.47 34.5049 624.628 81.0153 637.426 125.44C645.284 152.707 663.852 178.012 681.812 202.485C706.978 236.779 733.006 272.244 731.732 314.85C730.746 347.864 711.972 375.075 693.811 401.387C677.297 425.323 660.223 450.072 656.981 478.878C651.355 528.829 682.731 582.902 713.073 635.193C730.506 665.239 746.973 693.619 756.06 720.353L756.587 721.896L754.897 721.517C700.548 709.354 644.207 710.36 589.699 711.326C535.8 712.282 480.057 713.272 427.728 701.163C404.937 695.887 383.961 684.908 363.678 674.293C336.262 659.942 307.917 645.105 275.305 644.771C274.884 644.767 274.467 644.764 274.051 644.764C235.267 644.764 205.763 663.352 174.54 683.019C156.877 694.147 138.61 705.656 118.577 713.401C40.4742 743.597 -56.613 744.87 -142.272 745.994C-160.801 746.237 -178.307 746.467 -195.563 746.958L-197.028 747ZM-153.682 -100.504C-152.643 -83.3259 -152.03 -65.4339 -151.383 -46.5093C-149.306 14.269 -146.945 83.1537 -128.478 137.822C-120.869 160.334 -104.642 181.79 -88.9473 202.541C-66.2612 232.537 -42.8044 263.558 -43.8674 299.11C-44.9254 334.403 -70.039 360.762 -94.3288 386.252C-112.136 404.943 -130.551 424.27 -139.897 447.222C-158.753 493.543 -162.794 544.71 -166.701 594.193C-170.675 644.519 -174.783 696.54 -194.16 745.091C-177.364 744.629 -160.313 744.404 -142.296 744.168C-56.819 743.046 40.0673 741.775 117.821 711.716C137.677 704.04 155.862 692.584 173.444 681.507C203.858 662.344 235.215 642.608 275.324 642.943C308.443 643.284 337.009 658.238 364.636 672.698C384.808 683.258 405.665 694.174 428.197 699.388C480.277 711.441 535.867 710.462 589.665 709.497C643.718 708.54 699.595 707.545 753.662 719.367C744.526 693.244 728.4 665.451 711.349 636.062C680.864 583.526 649.344 529.202 655.027 478.686C658.322 449.45 675.525 424.513 692.164 400.402C710.176 374.297 728.802 347.304 729.769 314.8C731.024 272.784 705.183 237.571 680.194 203.515C662.143 178.918 643.474 153.482 635.53 125.913C622.531 80.7874 649.56 33.9541 675.698 -11.3369C691.436 -38.6081 706.313 -64.3789 713.088 -89.7684C678.369 -101.202 563.714 -135.545 486.794 -118.543C455.413 -111.612 425.751 -91.6597 397.07 -72.3669C359.901 -47.3657 321.405 -21.5327 278.178 -22.844C240.079 -24.0123 209.062 -45.3721 179.07 -66.0272C155.618 -82.1795 131.361 -98.8804 103.835 -105.89C53.1817 -118.78 -11.2654 -112.533 -73.6014 -106.487C-102.234 -103.713 -129.296 -101.088 -153.682 -100.504Z" fill="#080807" fill-opacity="0.1"/>
<path d="M-180.806 700.717L-180.854 698.888C-160.577 698.429 -139.505 698.529 -117.197 698.636C-41.6412 698.987 44.1079 699.404 111.706 675.825C132.132 668.702 150.93 657.993 169.11 647.637C199.782 630.166 231.499 612.101 270.689 612.052H270.847C304.052 612.052 335.328 624.75 365.579 637.031C386.699 645.605 408.542 654.472 430.754 658.868C484.864 669.579 541.042 670.562 595.373 671.514C641.984 672.331 690.186 673.173 737.612 680.06L737.305 681.867C690.013 674.998 641.884 674.155 595.334 673.341C540.913 672.386 484.639 671.401 430.342 660.656C407.939 656.22 386.005 647.316 364.794 638.706C334.729 626.5 303.64 613.88 270.847 613.88H270.689C232.049 613.927 201.976 631.058 170.135 649.196C151.873 659.597 132.994 670.353 112.396 677.538C44.4624 701.232 -41.4261 700.833 -117.207 700.465C-139.519 700.356 -160.567 700.258 -180.806 700.717Z" fill="#080807" fill-opacity="0.1"/>
<path d="M-25.8309 650.319C-51.8014 650.319 -78.0064 649.318 -103.905 648.328C-127.759 647.418 -150.287 646.558 -172.255 646.482L-172.245 644.653C-150.244 644.731 -127.697 645.592 -103.824 646.504C-31.3516 649.27 43.6056 652.135 108.56 632.823C128.234 626.971 146.698 618.456 164.552 610.22C193.635 596.809 223.709 582.938 258.987 580.871C295.64 578.73 335.97 588.415 374.988 597.786C399.915 603.771 423.462 609.427 446.024 612.199C518.419 621.097 586.524 626.315 658.628 631.839C676.712 633.226 694.95 634.622 713.432 636.094L713.269 637.914C694.783 636.444 676.55 635.046 658.47 633.661C586.338 628.133 518.213 622.912 445.765 614.009C423.088 611.224 399.484 605.556 374.499 599.554C335.625 590.219 295.415 580.556 259.112 582.695C224.226 584.74 195.665 597.911 165.424 611.857C147.502 620.122 128.972 628.67 109.154 634.562C67.1482 647.055 21.049 650.319 -25.8309 650.319Z" fill="#080807" fill-opacity="0.1"/>
<path d="M17.9993 600.007C-19.7781 600.007 -58.0302 596.412 -95.5591 592.884C-119.088 590.672 -143.42 588.386 -166.791 587.106L-166.676 585.282C-143.263 586.564 -118.915 588.852 -95.3629 591.066C-29.5458 597.25 38.5115 603.653 102.083 590.433C120.728 586.56 138.429 581.421 155.551 576.453C185.084 567.88 212.979 559.783 245.399 557.562C336.818 551.284 422.361 561.326 505.07 571.027C562.465 577.759 621.813 584.722 683.555 586.423L683.498 588.248C621.66 586.544 562.264 579.577 504.826 572.84C422.218 563.15 336.789 553.133 245.543 559.382C213.348 561.589 185.553 569.655 156.135 578.197C138.975 583.177 121.235 588.326 102.514 592.217C74.9729 597.942 46.6225 600.007 17.9993 600.007Z" fill="#080807" fill-opacity="0.1"/>
<path d="M56.3323 556.824C9.32304 556.824 -37.6954 547.901 -83.4216 539.224C-108.985 534.374 -135.425 529.358 -161.352 526.013L-161.084 524.203C-135.095 527.556 -108.626 532.578 -83.029 537.436C-28.3926 547.803 28.073 558.53 84.0602 553.885C109.494 551.777 135.46 547.707 160.578 543.773C183.288 540.216 206.769 536.537 229.866 534.302C260.52 531.334 291.642 524.987 321.735 518.85C357.755 511.502 395.002 503.904 431.75 502.042C474.81 499.843 512.606 510.467 549.149 520.723C584.533 530.656 621.128 540.917 663.071 539.989L663.119 541.815C620.898 542.841 584.116 532.447 548.584 522.474C512.204 512.263 474.627 501.685 431.856 503.866C395.27 505.722 358.1 513.302 322.151 520.634C292.006 526.783 260.836 533.141 230.068 536.117C207.032 538.348 183.58 542.023 160.904 545.575C135.752 549.516 109.743 553.59 84.2323 555.704C74.9387 556.474 65.6357 556.824 56.3323 556.824Z" fill="#080807" fill-opacity="0.1"/>
<path d="M105.243 523.17C93.182 523.17 81.5663 522.889 70.6111 522.32C21.2988 519.758 -20.884 505.517 -65.5472 490.439C-91.5031 481.677 -118.345 472.616 -146.743 466.051L-146.274 464.276C-117.775 470.865 -90.8808 479.944 -64.8769 488.722C-20.3573 503.752 21.696 517.947 70.7165 520.496C113.464 522.728 166.382 520.518 215.914 514.466C252.414 510.006 286.304 495.753 319.083 481.971C351.053 468.526 384.115 454.624 419.345 449.992C458.813 442.488 494.843 450.987 526.382 475.281C564.433 504.62 607.732 512.878 655.066 499.816L655.622 501.569C607.621 514.818 563.715 506.44 525.128 476.69C494.077 452.768 458.617 444.386 419.68 451.792C384.665 456.395 351.733 470.243 319.887 483.635C286.984 497.472 252.96 511.781 216.173 516.277C179.214 520.795 140.364 523.17 105.243 523.17Z" fill="#080807" fill-opacity="0.1"/>
<path d="M122.355 483.731C100.425 483.731 79.2623 482.848 60.2632 481.077C20.7565 477.393 -13.5356 464.934 -46.6979 452.884C-72.7542 443.418 -99.7015 433.628 -129.55 427.807L-129.148 426.019C-99.1416 431.871 -72.1173 441.687 -45.9845 451.183C-11.4238 463.738 21.2213 475.6 60.4544 479.257C99.7597 482.921 148.334 482.776 193.735 478.858C234.697 475.323 272.844 461.359 309.736 447.856C340.762 436.495 372.852 424.75 406.574 419.19C454.914 411.227 496.537 425.62 540.602 440.86C577.676 453.68 616.014 466.932 659.011 465.859L659.068 467.683C615.564 468.783 577.163 455.451 539.922 442.573C496.111 427.419 454.742 413.109 406.919 420.988C373.383 426.516 341.389 438.228 310.454 449.555C273.432 463.107 235.157 477.119 193.917 480.678C170.341 482.712 145.907 483.731 122.355 483.731Z" fill="#080807" fill-opacity="0.1"/>
<path d="M73.6365 449.069C70.1985 449.069 66.8037 449.015 63.4618 448.902C30.3236 447.784 3.33324 435.708 -22.7663 424.03C-48.4015 412.562 -74.9085 400.703 -106.701 399.851L-106.644 398.027C-74.4345 398.888 -47.7363 410.832 -21.9191 422.384C4.00343 433.98 30.8071 445.971 63.529 447.077C88.2641 447.913 115.901 445.4 142.609 442.969C151.83 442.131 160.54 441.339 168.972 440.699C222.895 436.607 276.004 425.66 327.361 415.071C346.647 411.097 366.59 406.985 386.383 403.272C446.703 391.965 497.299 403.12 550.863 414.937C588.785 423.305 627.994 431.955 671.685 432.278L671.666 434.107C627.76 433.779 588.44 425.104 550.408 416.715C497.055 404.944 446.656 393.83 386.766 405.065C366.997 408.773 347.064 412.881 327.787 416.856C276.363 427.455 223.187 438.418 169.134 442.519C160.712 443.159 152.012 443.951 142.8 444.789C119.626 446.897 95.7671 449.069 73.6365 449.069Z" fill="#080807" fill-opacity="0.1"/>
<path d="M52.4971 423.998C24.6114 423.998 4.50136 411.182 -15.0002 398.754C-34.2626 386.482 -54.1764 373.791 -81.5547 373.592L-81.5351 371.763C-53.5636 371.968 -33.3962 384.82 -13.8941 397.246C6.84261 410.46 28.3461 424.119 58.9898 421.94C74.3832 420.845 89.3794 416.095 105.257 411.064C119.746 406.474 134.728 401.729 150.016 400.038C187.262 395.926 225.184 394.677 261.86 393.471C304.321 392.075 348.227 390.632 391.444 384.738C456.361 375.891 512.568 382.548 572.065 389.6C610.575 394.164 650.398 398.886 693.337 399.166L693.327 400.995C650.268 400.712 610.383 395.984 571.816 391.413C512.463 384.374 456.39 377.733 391.731 386.544C348.404 392.454 304.44 393.899 261.927 395.297C225.294 396.501 187.41 397.748 150.245 401.854C135.163 403.519 120.282 408.234 105.889 412.794C90.5958 417.638 74.7807 422.649 59.1427 423.76C56.878 423.92 54.6613 423.998 52.4971 423.998Z" fill="#080807" fill-opacity="0.1"/>
<path d="M44.9751 402.092C21.9781 402.092 7.08669 388.489 -7.38245 375.269C-22.2351 361.699 -37.6 347.665 -61.9473 347.331L-61.9188 345.502C-36.7862 345.85 -21.1387 360.142 -6.00813 373.964C11.3053 389.784 27.7043 404.715 57.0025 399.062C70.1268 396.526 80.8041 388.745 92.1133 380.509C104.96 371.146 118.247 361.465 136.638 358.127C179.874 350.27 230.23 355.357 278.92 360.276C319.772 364.397 362.007 368.657 399.21 365.104C477.175 357.645 547.55 359.873 622.047 362.234C652.25 363.191 683.478 364.181 715.692 364.509L715.673 366.337C683.43 366.008 652.193 365.018 621.98 364.061C547.559 361.699 477.246 359.473 399.411 366.92C361.993 370.503 319.657 366.224 278.709 362.091C230.158 357.192 179.956 352.125 137.011 359.919C119.085 363.175 105.989 372.718 93.3199 381.948C81.8287 390.32 70.9741 398.23 57.4046 400.85C53.0047 401.7 48.8675 402.092 44.9751 402.092Z" fill="#080807" fill-opacity="0.1"/>
<path d="M42.614 376.848C22.1308 376.848 11.5159 362.961 0.388054 348.408C-11.0315 333.471 -22.8433 318.025 -46.6306 317.644L-46.5923 315.815C-21.819 316.214 -9.71943 332.041 1.98742 347.348C15.0539 364.442 27.3883 380.581 56.485 373.104C68.513 370.013 76.5617 359.589 85.089 348.555C95.7328 334.782 107.794 319.172 130.236 314.136C172.05 304.743 228.276 315.735 282.645 326.354C327.739 335.163 370.3 343.468 405.081 341.053C506.357 333.957 611.087 326.616 728.83 330.759L728.754 332.583C611.12 328.455 506.449 335.786 405.224 342.873C370.209 345.343 327.476 336.979 282.243 328.143C228.085 317.559 172.089 306.62 130.696 315.911C108.958 320.788 97.1215 336.107 86.6786 349.623C77.9454 360.925 69.7005 371.603 57.0023 374.865C51.7022 376.228 46.938 376.848 42.614 376.848Z" fill="#080807" fill-opacity="0.1"/>
<path d="M43.9989 342.299C23.8649 342.299 12.9052 328.422 1.4185 313.88C-10.3889 298.929 -22.5982 283.468 -46.0266 282.817L-45.9689 280.993C-21.5834 281.67 -9.08665 297.493 2.99871 312.796C16.5824 329.999 29.4189 346.251 58.1043 338.408C70.3715 335.061 78.0947 323.803 86.268 311.886C96.6339 296.777 108.384 279.65 132.042 274.18C173.545 264.577 230.628 278.212 285.815 291.398C330.235 302.011 372.149 312.008 405.637 310.483C442.055 308.793 477.553 305.976 511.879 303.253C584.251 297.508 652.615 292.08 728.726 296.369L728.611 298.193C652.625 293.921 584.347 299.335 512.047 305.073C477.702 307.798 442.189 310.617 405.733 312.307C371.957 313.868 329.894 303.815 285.327 293.169C230.379 280.038 173.559 266.457 132.511 275.955C109.619 281.249 98.0896 298.048 87.9199 312.869C79.5407 325.083 71.6258 336.622 58.6599 340.161C53.2636 341.633 48.4087 342.299 43.9989 342.299Z" fill="#080807" fill-opacity="0.1"/>
<path d="M52.2487 298.985C32.1386 298.985 15.6965 287.31 -1.51204 275.094C-18.4283 263.083 -35.9187 250.664 -57.6904 249.705L-57.5944 247.88C-35.2201 248.866 -17.4752 261.461 -0.31966 273.642C20.8293 288.657 40.8341 302.845 67.7426 294.806C81.0394 290.839 89.3514 281.017 98.1567 270.623C109.241 257.53 120.704 243.991 143.385 239.386C184.844 230.97 239.696 247.044 292.768 262.588C333.514 274.521 372.005 285.794 403.357 286.1C456.333 286.579 510.716 279.436 563.413 272.492C613.808 265.851 665.916 258.982 717.024 258.725L717.034 260.554C666.06 260.808 614.018 267.668 563.691 274.3C510.922 281.256 456.347 288.461 403.338 287.928C371.694 287.618 333.069 276.307 292.178 264.33C239.347 248.86 184.696 232.861 143.806 241.17C121.81 245.637 110.567 258.915 99.6933 271.753C90.7018 282.375 82.2074 292.406 68.3412 296.545C62.6959 298.231 57.3527 298.985 52.2487 298.985Z" fill="#080807" fill-opacity="0.1"/>
<path d="M424.487 270.235C416.362 270.235 408.26 269.887 400.169 269.133C369.18 266.243 335.013 252.626 298.844 238.211C252.672 219.808 204.974 200.759 163.816 205.571C142.188 208.096 129.49 218.434 117.213 228.43C107.56 236.286 97.5821 244.41 83.4718 248.456C53.0916 257.173 19.3305 244.375 -13.3194 231.998C-36.5938 223.173 -60.6635 214.05 -82.8132 213.167L-82.7269 211.343C-60.2374 212.239 -36.0099 221.423 -12.5771 230.307C19.7473 242.562 53.1772 255.231 82.8971 246.709C96.6054 242.78 105.99 235.142 115.92 227.054C128.422 216.878 141.35 206.354 163.576 203.76C205.18 198.89 253.199 218.033 299.614 236.529C335.645 250.889 369.674 264.452 400.36 267.313C458.713 272.746 518.29 256.89 575.886 241.549C613.965 231.405 653.347 220.914 691.791 216.798L692.011 218.613C653.73 222.712 614.43 233.182 576.422 243.304C526.607 256.573 475.322 270.232 424.487 270.235Z" fill="#080807" fill-opacity="0.1"/>
<path d="M429.974 254.067C419.555 254.067 408.997 253.094 398.282 250.929C367.983 244.807 337.89 228.189 308.788 212.117C271.13 191.321 232.193 169.819 191.308 169.667C191.197 169.665 191.088 169.665 190.977 169.665C169.58 169.665 154.105 177.316 137.72 185.414C126.295 191.06 114.483 196.901 100.569 199.816C60.2439 208.261 11.4488 198.201 -35.7423 188.478C-62.4214 182.978 -87.6213 177.787 -110.431 176.056L-110.269 174.237C-87.329 175.976 -62.0625 181.181 -35.3162 186.694C11.6691 196.377 60.2585 206.388 100.138 198.031C113.794 195.17 125.491 189.39 136.8 183.801C152.759 175.914 169.364 167.783 191.317 167.839C232.734 167.995 271.905 189.626 309.788 210.547C338.756 226.543 368.706 243.086 398.693 249.145C457.452 261.018 511.745 236.498 564.26 212.79C595.281 198.783 627.362 184.299 660.419 177.111L660.869 178.891C628.023 186.032 596.043 200.471 565.117 214.434C521.833 233.978 477.337 254.067 429.974 254.067Z" fill="#080807" fill-opacity="0.1"/>
<path d="M443.744 238.548C429.792 238.548 415.088 235.136 399.661 228.301C371.813 219.059 348.055 201.176 325.082 183.882C295.458 161.588 264.829 138.531 225.078 133.962C201.976 131.294 179.802 137.945 158.39 144.369C144.705 148.477 130.557 152.723 116.25 154.521C64.1892 161.059 9.7157 155.219 -42.9629 149.574C-70.6711 146.604 -99.3231 143.533 -126.941 142.376L-126.854 140.552C-99.1648 141.711 -70.48 144.786 -42.7379 147.759C9.82106 153.397 64.1657 159.215 115.992 152.71C130.121 150.935 144.184 146.713 157.787 142.632C179.4 136.143 201.736 129.437 225.317 132.147C265.623 136.783 296.478 160.005 326.312 182.461C349.161 199.66 372.785 217.442 400.412 226.614C442.48 245.249 479.056 237.963 509.221 204.983C544.825 164.96 586.088 143.575 639.078 137.702L639.308 139.517C586.85 145.331 545.993 166.507 510.725 206.158C490.993 227.732 468.57 238.546 443.744 238.548Z" fill="#080807" fill-opacity="0.1"/>
<path d="M448.432 208.892C435.145 208.892 421.025 204.666 406.125 196.207C380.068 185.925 361.04 168.403 342.645 151.459C318.987 129.675 296.646 109.101 260.122 101.804C234.19 96.6256 204.341 102.707 175.479 108.592C158.194 112.116 141.866 115.443 126.32 116.525C65.2907 120.782 2.46201 116.297 -58.2987 111.962C-84.4987 110.093 -111.585 108.162 -137.977 106.98L-137.881 105.156C-111.465 106.338 -84.36 108.271 -58.1501 110.14C2.54341 114.471 65.3006 118.953 126.176 114.705C141.584 113.63 157.844 110.316 175.057 106.808C204.13 100.885 234.18 94.7526 260.534 100.02C297.618 107.426 321.208 129.149 344.019 150.159C362.29 166.982 381.179 184.379 407.02 194.586C444.664 215.941 477.089 209.668 503.548 175.996C532.515 134.76 576.848 110.055 631.734 104.589L631.944 106.404C577.662 111.81 533.823 136.236 505.156 177.036C488.479 198.261 469.499 208.892 448.432 208.892Z" fill="#080807" fill-opacity="0.1"/>
<path d="M450.031 153.947C440.129 153.947 430.041 152.536 419.713 149.342C395.126 141.738 374.293 128.714 354.145 116.121C330.813 101.534 306.686 86.4497 276.65 79.8017C247.807 73.4173 213.003 74.8979 179.319 76.3229C161.794 77.0701 145.247 77.7748 129.652 77.4113C68.9676 76.0151 5.53096 73.473 -55.8141 71.0131C-84.9349 69.8466 -115.047 68.6381 -144.096 67.5877L-144.02 65.7636C-114.966 66.814 -84.8535 68.0202 -55.7327 69.189C5.6075 71.6466 69.0349 74.1909 129.7 75.5871C145.223 75.9461 161.741 75.2437 179.232 74.4988C213.036 73.0647 247.994 71.5794 277.1 78.0224C307.485 84.748 331.761 99.9261 355.241 114.602C375.275 127.128 395.997 140.083 420.335 147.607C470.179 163.015 512.941 137.126 558.213 109.707C583.398 94.4533 609.44 78.68 636.78 70.7391L637.364 72.4828C610.283 80.3484 584.355 96.0523 559.285 111.239C524.505 132.307 488.771 153.945 450.031 153.947Z" fill="#080807" fill-opacity="0.1"/>
<path d="M451.291 92.9859C419.057 92.9859 383.362 83.3455 348.826 74.0193C325.321 67.6727 303.119 61.6783 281.903 58.4712C150.844 38.666 13.7329 28.14 -149.593 25.3435L-149.554 23.5148C13.8624 26.3136 151.06 36.8483 282.219 56.6694C303.55 59.8921 325.81 65.902 349.372 72.2641C383.774 81.5547 419.34 91.1577 451.291 91.1577C451.568 91.1577 451.851 91.1577 452.129 91.1554C496.078 90.9211 530.519 75.663 566.985 59.5107C593.563 47.7356 621.047 35.5617 653.089 29.2439L653.491 31.0324C621.683 37.3036 594.305 49.4304 567.827 61.1585C531.16 77.4022 496.524 92.7452 452.138 92.9841C451.855 92.9841 451.573 92.9859 451.291 92.9859Z" fill="#080807" fill-opacity="0.1"/>
<path d="M334.639 35.41C317.632 35.41 300.424 34.6139 282.962 32.8099C249.512 29.3553 219.271 17.7277 190.026 6.48141C166.669 -2.49906 142.518 -11.7874 116.768 -16.9255C59.3924 -28.3722 -6.09859 -24.9427 -69.4397 -21.6219C-98.1589 -20.1165 -125.283 -18.6939 -151.407 -18.6158L-151.417 -20.4445C-125.341 -20.5203 -98.2403 -21.9407 -69.55 -23.446C-6.07942 -26.7709 59.5459 -30.2187 117.18 -18.7094C143.103 -13.538 167.335 -4.22044 190.772 4.79109C219.893 15.9903 250.006 27.569 283.182 30.9944C368.773 39.8388 448.705 24.3802 526.009 9.42953C574.728 0.00969505 625.103 -9.73121 677.116 -13.5891L677.268 -11.7695C625.38 -7.92032 575.062 1.80963 526.406 11.2203C464.698 23.1535 401.308 35.41 334.639 35.41Z" fill="#080807" fill-opacity="0.1"/>
<path d="M290.598 8.26376C287.06 8.26376 283.535 8.13405 280.021 7.8623C243.186 5.01649 212.021 -13.0961 181.875 -30.6136C157.451 -44.8056 132.199 -59.4819 104.022 -66.0134C51.6877 -78.1407 -12.0603 -72.9469 -73.7114 -67.9248C-101.813 -65.6366 -128.353 -63.4736 -152.901 -63.0342L-152.94 -64.8629C-128.459 -65.3 -101.947 -67.4585 -73.8841 -69.7443C-12.0751 -74.7778 51.8504 -79.9918 104.491 -67.7841C132.975 -61.1854 158.361 -46.4311 182.914 -32.1632C212.859 -14.7622 243.823 3.23254 280.184 6.04227C321.797 9.27585 365.258 -7.75521 407.288 -24.2108C435.768 -35.3611 465.224 -46.8929 493.157 -51.5381C570.666 -64.4281 640.687 -66.2568 701.251 -56.9685L700.935 -55.1663C640.567 -64.419 570.786 -62.5926 493.502 -49.7405C465.784 -45.1313 436.433 -33.6398 408.045 -22.5269C369.328 -7.367 329.396 8.26376 290.598 8.26376Z" fill="#080807" fill-opacity="0.1"/>
<path d="M706.294 713.984C697.862 690.292 682.784 663.745 666.826 635.639C637.973 584.829 608.133 532.289 611.054 486.55C613.036 455.431 631.437 428.628 649.235 402.71C668.191 375.1 687.793 346.548 687.367 312.845C686.873 273.41 660.874 241.598 635.732 210.832C616.048 186.747 595.699 161.842 588.086 133.638C576.226 89.679 609.13 36.7215 640.951 -14.4923C659.969 -45.102 677.934 -74.0151 685.36 -99.4512L687.256 -98.9698C679.758 -73.3058 661.731 -44.2927 642.646 -13.5779C611.026 37.3216 578.323 89.9535 589.991 133.192C597.499 161.035 617.729 185.789 637.293 209.726C662.632 240.727 688.827 272.784 689.33 312.822C689.761 347.072 669.995 375.858 650.886 403.694C633.223 429.415 614.966 456.013 613.008 486.657C610.126 531.887 639.831 584.196 668.559 634.785C684.561 662.96 699.672 689.571 708.152 713.409L706.294 713.984Z" fill="#080807" fill-opacity="0.1"/>
<path d="M644.159 710.09C637.958 684.516 624.801 654.702 610.868 623.135C588.115 571.587 564.586 518.286 567.842 475.805C570.078 446.607 586.549 421.066 602.474 396.366C619.931 369.295 637.978 341.305 636.541 308.936C635.071 275.748 613.18 250.423 592.012 225.932C573.779 204.84 554.929 183.028 549.757 156.544C540.478 108.974 570.562 51.226 599.654 -4.6216C619.223 -42.1785 637.7 -77.6524 644.36 -109.337L646.285 -108.985C639.577 -77.0701 621.042 -41.4916 601.421 -3.82327C572.462 51.759 542.523 109.235 551.692 156.218C556.767 182.243 574.627 202.909 593.54 224.788C614.909 249.508 637.001 275.072 638.504 308.86C639.964 341.776 621.76 370.006 604.155 397.305C588.344 421.822 571.998 447.171 569.795 475.935C566.578 517.987 590.015 571.088 612.682 622.442C626.644 654.08 639.835 683.962 646.074 709.689L644.159 710.09Z" fill="#080807" fill-opacity="0.1"/>
<path d="M575.498 710.726C572.276 674.511 561.646 634.205 551.371 595.225C538.864 547.779 525.932 498.715 525.85 455.73C525.802 428.046 540.502 404.643 554.717 382.015C569.431 358.584 584.653 334.356 582.842 305.742C581.1 278.283 564.801 258.371 549.039 239.116C536.015 223.207 522.547 206.756 516.992 185.985C515.925 142.235 528.292 101.066 553.722 63.4198C585.73 7.93118 601.818 -54.7184 600.214 -117.702L602.177 -117.747C603.785 -54.4462 587.616 8.51761 555.412 64.3387C530.159 101.73 517.897 142.559 518.927 185.744C524.351 205.948 537.696 222.246 550.595 238.008C566.539 257.481 583.02 277.618 584.796 305.635C586.644 334.802 571.275 359.272 556.407 382.936C542.326 405.357 527.765 428.539 527.813 455.726C527.89 498.492 540.794 547.446 553.276 594.791C563.571 633.839 574.215 674.217 577.451 710.574L575.498 710.726Z" fill="#080807" fill-opacity="0.1"/>
<path d="M513.717 710.677L511.754 710.623C513.19 663.363 505.735 613.564 498.525 565.403C492.003 521.865 485.266 476.847 485.558 435.316C485.731 411.017 497.605 390.986 509.092 371.618C521.502 350.682 533.228 330.908 531.811 305.936C530.552 283.662 519.817 268.923 508.455 253.322C499.779 241.406 490.811 229.088 486.171 212.993L486.138 212.745C486.731 166.937 497.993 122.528 519.606 80.7477C549.724 15.2436 562.249 -57.6533 554.866 -124.482L556.819 -124.669C564.236 -57.5373 551.653 15.683 521.388 81.5035C499.903 123.041 488.709 167.147 488.101 212.641C492.664 228.378 501.517 240.537 510.078 252.296C521.598 268.116 532.482 283.057 533.774 305.838C535.216 331.334 522.805 352.261 510.806 372.501C499.444 391.671 487.689 411.492 487.521 435.329C487.225 476.726 493.655 519.677 500.464 565.151C507.689 613.385 515.154 663.263 513.717 710.677Z" fill="#080807" fill-opacity="0.1"/>
<path d="M461.824 705.594L459.871 705.429C463.998 662.634 468.633 612.005 471.683 560.988C473.818 520.688 468.188 481.104 454.934 443.342C447.752 422.872 450.031 399.878 461.192 380.256C463.529 376.146 466.038 372.051 468.465 368.093C478.664 351.458 489.212 334.258 489.011 312.171C488.839 292.482 480.359 279.898 471.381 266.575C464.008 255.63 456.381 244.312 453.68 228.702C455.882 181.638 466.794 135.701 486.1 91.9762C513.483 23.1806 521.369 -48.8733 509.519 -122.156L511.462 -122.428C523.356 -48.8376 515.441 23.5218 487.924 92.6407C468.695 136.199 457.831 181.931 455.628 228.597C458.252 243.654 465.775 254.814 473.043 265.605C481.772 278.557 490.792 291.949 490.974 312.158C491.175 334.738 480.498 352.155 470.17 368.998C467.752 372.945 465.248 377.027 462.925 381.112C452.013 400.297 449.778 422.774 456.802 442.775C470.122 480.749 475.791 520.554 473.641 561.083C470.586 612.134 465.957 662.781 461.824 705.594Z" fill="#080807" fill-opacity="0.1"/>
<path d="M425.052 699.305L423.099 699.158C423.721 692.031 424.353 684.955 424.981 677.914C428.572 637.584 431.967 599.492 433.546 559.154C435.021 527.509 426.01 493.942 417.296 461.479C413.781 448.395 410.463 436.036 407.83 423.891C407.332 421.574 407.035 419.487 406.925 417.506C405.8 397.338 412.019 383.656 418.608 369.172C424.33 356.601 430.243 343.6 431.32 325.581C432.388 307.693 427.873 290.729 423.506 274.32C419.225 258.243 414.806 241.621 415.495 223.936C423.127 178.369 435.136 133.221 451.191 89.6432C475.069 23.1047 481.868 -45.8873 471.391 -115.405L473.335 -115.659C483.85 -45.8581 477.027 23.4121 453.048 90.2296C437.027 133.714 425.047 178.755 417.444 224.11C416.774 241.431 421.165 257.927 425.407 273.881C429.812 290.419 434.361 307.522 433.274 325.683C432.182 344.019 426.197 357.17 420.413 369.886C413.915 384.169 407.782 397.661 408.888 417.413C408.989 419.302 409.271 421.304 409.755 423.53C412.379 435.633 415.692 447.971 419.197 461.035C427.949 493.626 436.994 527.324 435.509 559.228C433.925 599.601 430.53 637.713 426.934 678.064C426.307 685.106 425.675 692.18 425.052 699.305Z" fill="#080807" fill-opacity="0.1"/>
<path d="M392.977 688.652L391.014 688.603C392.761 626.667 383.023 568.106 373.6 511.473C363.631 451.529 353.317 389.544 357.354 325.26C361.467 259.662 377.305 196.858 392.623 136.12C411.191 62.4944 430.391 -13.6361 428.61 -94.8709L430.573 -94.9066C432.359 -13.4443 413.13 62.8022 394.533 136.537C379.23 197.2 363.411 259.927 359.307 325.366C355.29 389.456 365.584 451.343 375.539 511.192C384.971 567.907 394.729 626.549 392.977 688.652Z" fill="#080807" fill-opacity="0.1"/>
<path d="M358.326 671.342C353.701 583.357 334.16 522.826 299.73 441.908C283.766 404.411 276.402 357.344 280.026 316.002C283.977 270.89 299.155 234.948 320.72 194.858C372.465 98.6614 388.864 33.046 385.709 -65.1751L387.672 -65.229C390.837 33.336 374.385 99.172 322.473 195.676C301.008 235.577 285.906 271.332 281.98 316.15C278.38 357.225 285.696 403.986 301.549 441.234C336.061 522.336 355.645 583.013 360.289 671.253L358.326 671.342Z" fill="#080807" fill-opacity="0.1"/>
<path d="M326.883 655.97C318.939 603.533 293.28 553.073 268.463 504.277C235.953 440.351 202.34 374.252 208.311 303.057C212.443 253.754 244.049 206.798 274.424 167.368C332.935 91.396 344.316 55.175 338.522 -36.6037L340.476 -36.7105C346.308 55.6011 334.859 92.0272 276.014 168.434C245.801 207.659 214.363 254.345 210.264 303.2C204.337 373.911 237.839 439.787 270.235 503.494C295.114 552.415 320.84 603.002 328.826 655.716L326.883 655.97Z" fill="#080807" fill-opacity="0.1"/>
<path d="M290.737 645.766C278.93 596.513 251.441 550.39 224.862 505.786C186.41 441.271 146.65 374.555 153.774 297.281C159.285 237.569 190.906 200.074 227.52 156.657C232.983 150.176 238.638 143.475 244.278 136.6C293.873 76.1783 303.004 57.3496 296.234 -22.8841L298.187 -23.0266C305.015 57.847 295.812 76.8228 245.839 137.71C240.184 144.595 234.53 151.3 229.062 157.785C192.644 200.973 161.186 238.269 155.728 297.437C148.656 374.156 188.268 440.622 226.577 504.901C253.227 549.618 280.782 595.857 292.652 645.369L290.737 645.766Z" fill="#080807" fill-opacity="0.1"/>
<path d="M258.26 645.208C245.844 596.847 217.719 551.262 190.523 507.18C150.614 442.495 109.346 375.606 116.169 298.077C121.374 238.945 152.803 201.43 189.192 157.991C195.632 150.302 202.297 142.351 208.895 134.156C257.738 73.5197 264.326 52.5819 259.265 -25.8788L261.219 -25.9903C266.27 52.2046 259.155 74.809 210.465 135.253C203.853 143.462 197.188 151.419 190.739 159.115C154.541 202.322 123.284 239.638 118.122 298.226C111.352 375.189 152.462 441.825 192.223 506.268C219.491 550.466 247.683 596.167 260.165 644.785L258.26 645.208Z" fill="#080807" fill-opacity="0.1"/>
<path d="M228.233 652.646C215.66 607.025 190.02 562.867 165.222 520.164C127.071 454.466 87.622 386.533 93.4203 310.423C97.5285 256.471 125.381 217.231 154.875 175.689C163.317 163.794 172.05 151.492 180.295 138.707C221.765 74.4209 227.099 41.755 223.91 -37.1944L225.873 -37.2611C229.076 42.1071 223.704 74.9562 181.98 139.648C173.711 152.467 164.968 164.784 156.508 176.697C127.167 218.033 99.4485 257.077 95.3741 310.552C89.6189 386.132 128.929 453.828 166.946 519.294C191.801 562.096 217.498 606.354 230.129 652.191L228.233 652.646Z" fill="#080807" fill-opacity="0.1"/>
<path d="M200.042 666.347C188.359 624.085 165.291 581.283 142.978 539.888C106.646 472.476 69.0695 402.766 74.9109 328.558C79.2246 273.692 113.378 215.069 140.814 167.966C142.767 164.618 144.687 161.318 146.574 158.067C190.284 82.6765 190.949 28.9695 188.364 -59.4682L190.327 -59.5175C192.922 29.2308 192.247 83.136 148.297 158.936C146.415 162.188 144.491 165.488 142.537 168.838C115.188 215.787 81.1493 274.218 76.8641 328.691C71.0659 402.398 108.518 471.878 144.73 539.07C167.09 580.55 190.207 623.441 201.938 665.892L200.042 666.347Z" fill="#080807" fill-opacity="0.1"/>
<path d="M172.917 682.836C161.593 640.728 142.441 599.971 123.926 560.554C92.5304 493.73 60.0673 424.634 65.1473 347.337C68.499 296.206 89.1929 248.815 109.202 202.982C116.82 185.528 124.701 167.477 131.524 149.458C156.987 82.1836 155.048 15.9926 152.99 -54.0873C152.707 -63.8172 152.42 -73.6029 152.204 -83.4529L154.167 -83.4886C154.378 -73.6449 154.665 -63.8638 154.953 -54.1361C157.012 16.1155 158.96 82.4736 133.373 150.065C126.536 168.126 118.65 186.196 111.017 203.671C91.0703 249.366 70.4381 296.616 67.1011 347.449C62.0545 424.304 94.4215 493.197 125.721 559.823C144.27 599.307 163.456 640.135 174.823 682.39L172.917 682.836Z" fill="#080807" fill-opacity="0.1"/>
<path d="M141.633 701.205C131.381 659.96 115.59 620.673 100.321 582.682C71.3577 510.615 44.0035 442.544 50.549 361.358C54.188 316.188 68.6577 272.922 82.6532 231.081C92.5308 201.537 102.749 170.988 109.083 139.994C121.346 79.9914 119.296 15.7922 117.314 -46.2933C116.71 -65.1329 116.088 -84.6102 115.906 -103.367L117.869 -103.385C118.051 -84.6458 118.673 -65.1772 119.272 -46.349C121.259 15.837 123.313 80.1389 111.008 140.337C104.654 171.431 94.4217 202.032 84.5251 231.625C70.5629 273.368 56.1271 316.533 52.5023 361.496C45.9907 442.281 73.2733 510.166 102.16 582.039C117.448 620.089 133.263 659.431 143.548 700.795L141.633 701.205Z" fill="#080807" fill-opacity="0.1"/>
<path d="M104.424 717.532C95.2596 676.164 82.356 637.454 69.8784 600.02C43.8362 521.876 19.23 448.067 29.6248 358.249C33.9772 320.688 43.7066 283.589 53.1198 247.711C62.2654 212.844 71.7218 176.788 76.1938 140.438C83.8449 78.1696 83.6728 12.1952 83.5003 -51.6071C83.4522 -70.5897 83.3997 -90.2186 83.5625 -109.168L85.5256 -109.154C85.358 -90.2145 85.4109 -70.5897 85.4634 -51.6117C85.6311 12.2418 85.808 78.2701 78.1378 140.647C73.656 177.111 64.1854 213.223 55.0256 248.144C45.6266 283.965 35.9119 321.004 31.5786 358.445C21.2265 447.887 45.7703 521.52 71.7551 599.478C84.2474 636.955 97.1604 675.707 106.349 717.162L104.424 717.532Z" fill="#080807" fill-opacity="0.1"/>
<path d="M53.5362 730.732C48.9014 691.252 36.7919 652.275 25.0807 614.582C12.1192 572.853 -1.28757 529.706 -4.52888 485.847C-7.12898 450.746 -1.48373 414.864 3.97966 380.162C5.85653 368.262 7.79085 355.957 9.34215 343.976C27.3405 204.806 36.184 55.0905 36.3708 -113.728H38.3339C38.1422 55.1663 29.2938 204.954 11.2861 344.195C9.7348 356.197 7.79577 368.516 5.92332 380.427C0.474638 415.033 -5.16084 450.817 -2.5755 485.722C0.656546 529.385 14.0299 572.439 26.9669 614.074C38.6977 651.843 50.8308 690.896 55.4895 730.531L53.5362 730.732Z" fill="#080807" fill-opacity="0.1"/>
<path d="M-10.0827 740.374L-12.0458 740.299C-10.0778 696.89 -17.7244 652.683 -25.122 609.931C-33.0031 564.375 -41.1524 517.269 -37.5757 471.284C-35.4738 444.265 -26.6636 419.42 -18.1457 395.395C-10.5809 374.062 -2.75712 352.002 0.360195 328.46C12.0572 240.131 3.77855 140.181 -4.22213 43.5209C-8.74219 -11.0936 -13.0132 -62.6796 -13.8845 -112L-11.9213 -112.031C-11.0545 -62.7645 -6.78832 -11.205 -2.26875 43.3802C5.74174 140.13 14.0252 240.173 2.30415 328.683C-0.837189 352.404 -8.6892 374.551 -16.2834 395.968C-24.7675 419.888 -33.5394 444.622 -35.6223 471.418C-39.1799 517.186 -31.0499 564.187 -23.183 609.641C-15.7756 652.481 -8.11026 696.781 -10.0827 740.374Z" fill="#080807" fill-opacity="0.1"/>
</svg>
