<svg width="232" height="232" viewBox="0 0 232 232" fill="none" xmlns="http://www.w3.org/2000/svg">
<path d="M116 0L117.698 99.849L140.118 2.53488L121.018 100.555L163.181 10.0287L124.12 101.936L184.183 22.154L126.867 103.931L202.205 38.3809L129.138 106.454L216.459 58L130.836 109.395L226.323 80.154L131.885 112.624L231.365 103.875L132.24 116L231.365 128.125L131.885 119.376L226.323 151.846L130.836 122.605L216.459 174L129.138 125.546L202.205 193.619L126.867 128.069L184.183 209.846L124.12 130.064L163.181 221.971L121.018 131.445L140.118 229.465L117.698 132.151L116 232L114.302 132.151L91.8822 229.465L110.982 131.445L68.8186 221.971L107.88 130.064L47.8169 209.846L105.133 128.069L29.7952 193.619L102.862 125.546L15.5411 174L101.164 122.605L5.67744 151.846L100.115 119.376L0.63546 128.125L99.76 116L0.63546 103.875L100.115 112.624L5.67744 80.154L101.164 109.395L15.5411 58L102.862 106.454L29.7952 38.3809L105.133 103.931L47.8169 22.154L107.88 101.936L68.8186 10.0287L110.982 100.555L91.8822 2.53488L114.302 99.849L116 0Z" fill="white"/>
</svg>
