<?xml version="1.0" encoding="UTF-8"?>
<svg xmlns="http://www.w3.org/2000/svg" xmlns:xlink="http://www.w3.org/1999/xlink" width="262.5pt" height="262.499992pt" viewBox="0 0 262.5 262.499992" version="1.2">
<defs>
<clipPath id="clip1">
  <path d="M 0 0 L 262 0 L 262 262 L 0 262 Z M 0 0 "/>
</clipPath>
<clipPath id="clip2">
  <path d="M 131 131 L 262 131 L 262 262 L 131 262 Z M 131 131 "/>
</clipPath>
</defs>
<g id="surface1">
<g clip-path="url(#clip1)" clip-rule="nonzero">
<path style=" stroke:none;fill-rule:nonzero;fill:rgb(100%,100%,100%);fill-opacity:1;" d="M 0 0 L 262.5 0 L 262.5 269.25 L 0 269.25 Z M 0 0 "/>
<path style=" stroke:none;fill-rule:nonzero;fill:rgb(100%,100%,100%);fill-opacity:1;" d="M 0 0 L 262.5 0 L 262.5 262.5 L 0 262.5 Z M 0 0 "/>
<path style=" stroke:none;fill-rule:nonzero;fill:rgb(100%,100%,100%);fill-opacity:1;" d="M 0 0 L 262.5 0 L 262.5 262.5 L 0 262.5 Z M 0 0 "/>
</g>
<path style=" stroke:none;fill-rule:nonzero;fill:rgb(0%,0%,0%);fill-opacity:1;" d="M 0 0 L 131.511719 0 L 131.511719 131.511719 L 0 131.511719 Z M 0 0 "/>
<g clip-path="url(#clip2)" clip-rule="nonzero">
<path style=" stroke:none;fill-rule:nonzero;fill:rgb(0%,0%,0%);fill-opacity:1;" d="M 131.25 131.25 L 262.761719 131.25 L 262.761719 262.761719 L 131.25 262.761719 Z M 131.25 131.25 "/>
</g>
</g>
</svg>
